<svg width="30" height="30" viewBox="0 0 30 30" fill="none" xmlns="http://www.w3.org/2000/svg">
<path d="M9.17496 15.5967C9.15596 15.5967 9.13697 15.5961 9.11774 15.5949L0.858296 15.0792C0.54404 15.0598 0.262057 14.8801 0.111453 14.6038C-0.0389231 14.3276 -0.037092 13.9932 0.116717 13.7185C0.159976 13.6412 1.20093 11.8058 3.18328 10.205C5.86212 8.04202 8.97629 7.3405 12.1889 8.17637C12.4555 8.24572 12.6766 8.43158 12.7911 8.6822C12.9055 8.93283 12.9009 9.22168 12.7785 9.46841L9.99505 15.0877C9.83987 15.4008 9.52103 15.5967 9.17496 15.5967Z" fill="#FF5B5B"/>
<path d="M15.8335 29.9997C15.6829 29.9997 15.5323 29.9627 15.3957 29.8881C15.1194 29.7374 14.9397 29.4557 14.9201 29.1414L14.4046 20.882C14.3817 20.5142 14.5815 20.1683 14.9118 20.0047L20.5311 17.221C20.7781 17.0988 21.0667 17.0942 21.3173 17.2087C21.5682 17.3229 21.7538 17.5442 21.8231 17.8108C22.6592 21.0234 21.9577 24.1376 19.7946 26.8165C18.194 28.7988 16.3583 29.8395 16.281 29.883C16.1421 29.9608 15.9878 29.9997 15.8335 29.9997Z" fill="#FF193D"/>
<path d="M28.5316 7.38619L22.6137 1.46821C22.3765 1.23109 22.0286 1.14274 21.7071 1.23773C17.7453 2.40961 14.4931 4.24753 12.0402 6.70023C11.5287 7.21201 11.0372 7.7666 10.5799 8.34842C9.25014 10.0392 8.13937 12.0382 7.27877 14.2902C6.7306 15.7255 6.28428 17.2632 5.95217 18.8603C5.37218 21.6501 5.34105 23.6497 5.33991 23.7334C5.33694 23.9799 5.43352 24.2175 5.60793 24.3919C5.77959 24.5636 6.0126 24.6599 6.25521 24.6599H6.26643C6.35043 24.659 8.34994 24.6279 11.1396 24.0479C12.7367 23.7158 14.2743 23.2695 15.7099 22.7211C17.9616 21.8605 19.9607 20.7499 21.651 19.4204C22.2333 18.9628 22.7878 18.4714 23.2996 17.9596C25.7525 15.5067 27.5905 12.2545 28.7621 8.2928C28.8573 7.97122 28.7688 7.62332 28.5316 7.38619Z" fill="#E1F1FA"/>
<path d="M11.7649 22.6687L7.33096 18.2348C7.00366 17.9075 6.48341 17.8762 6.11903 18.1618C5.8359 18.3838 5.56651 18.6223 5.3184 18.8704C2.23329 21.9555 2.13785 26.7357 2.13533 26.9376C2.13213 27.1844 2.22872 27.4219 2.40335 27.5963C2.57501 27.7682 2.80779 27.8646 3.0504 27.8646C3.05429 27.8646 3.05818 27.8646 3.06208 27.8644C3.26395 27.8618 8.04438 27.7664 11.1293 24.6813C11.3774 24.4332 11.6159 24.1638 11.8379 23.8807C12.1235 23.5163 12.0922 22.996 11.7649 22.6687Z" fill="#FFF261"/>
<path d="M7.34984 14.1074L4.62958 16.8279C4.45792 16.9993 4.36133 17.2321 4.36133 17.475C4.36133 17.7176 4.45792 17.9504 4.62958 18.122L11.8785 25.3709C12.0499 25.5426 12.2827 25.639 12.5256 25.639C12.7684 25.639 13.0009 25.5426 13.1726 25.3709L15.8929 22.6507L7.34984 14.1074Z" fill="#1B3B6B"/>
<path d="M19.2248 13.5674C18.4791 13.5674 17.7778 13.277 17.2505 12.7496C16.1619 11.6611 16.1619 9.88999 17.2505 8.80119C17.7778 8.27385 18.4791 7.9834 19.2248 7.9834C19.9705 7.9834 20.6718 8.27385 21.1992 8.80119C21.7265 9.32854 22.017 10.0296 22.017 10.7755C22.017 11.5212 21.7265 12.2223 21.1992 12.7496C20.6718 13.277 19.9705 13.5674 19.2248 13.5674Z" fill="#06CCAB"/>
<path d="M19.2247 14.463C18.2398 14.463 17.314 14.0794 16.6178 13.3831C15.1801 11.9455 15.1801 9.60634 16.6178 8.16873C17.314 7.47247 18.2401 7.08887 19.2247 7.08887C20.2096 7.08887 21.1354 7.47247 21.8319 8.16873C22.5284 8.86522 22.9118 9.79105 22.9118 10.7759C22.9118 11.7608 22.5284 12.6866 21.8319 13.3831C21.1354 14.0794 20.2096 14.463 19.2247 14.463ZM19.2247 8.91924C18.729 8.91924 18.2625 9.11242 17.9119 9.46306C17.1881 10.187 17.1881 11.3648 17.9119 12.0888C18.2625 12.4394 18.729 12.6326 19.2247 12.6326C19.7207 12.6326 20.1869 12.4394 20.5376 12.0888C20.8882 11.7382 21.0814 11.2719 21.0814 10.7759C21.0814 10.2799 20.8882 9.81371 20.5376 9.46306C20.1869 9.11242 19.7207 8.91924 19.2247 8.91924Z" fill="#1B3B6B"/>
<path d="M29.7319 0.26819C29.5572 0.0935525 29.3183 -0.00463796 29.0729 0.000168567C28.9372 0.00177074 25.7019 0.0562447 21.707 1.23774L28.7621 8.2928C29.9436 4.29789 29.9981 1.06264 29.9997 0.926913C30.0029 0.680178 29.9063 0.442598 29.7319 0.26819Z" fill="#FF5B5B"/>
<path d="M28.4037 7.11329L25.4447 4.1543L5.47998 24.119C5.65164 24.2907 5.88442 24.387 6.12703 24.387H6.13847C6.22225 24.3861 8.22176 24.355 11.0116 23.775C12.6087 23.4429 14.1461 22.9966 15.5817 22.4482C17.8337 21.5876 19.8327 20.477 21.523 19.1475C22.1051 18.6899 22.6599 18.1985 23.1714 17.6867C25.6244 15.2338 27.4623 11.9816 28.6339 8.01989C28.7294 7.69831 28.6408 7.35041 28.4037 7.11329Z" fill="#CDEBFC"/>
<path d="M11.7651 22.6691L9.54811 20.4521L2.40332 27.5967V27.5969C2.57521 27.7686 2.80798 27.865 3.0506 27.865H3.06204C3.26415 27.8624 8.04435 27.7668 11.1295 24.6817C11.3776 24.4336 11.6161 24.1642 11.8378 23.881C12.1237 23.5167 12.0926 22.9964 11.7651 22.6691Z" fill="#FDBF00"/>
<path d="M11.621 18.3789L8.25342 21.7465L11.878 25.371C12.0494 25.5425 12.2822 25.6391 12.525 25.6391C12.7679 25.6391 13.0004 25.5425 13.1721 25.371L15.8924 22.6505L11.621 18.3789Z" fill="#001035"/>
<path d="M21.1992 8.80078C21.1989 8.80078 21.1989 8.80078 21.1989 8.80078L17.2505 12.7492H17.2507C17.7778 13.2766 18.4791 13.567 19.2248 13.567C19.9705 13.567 20.6718 13.2766 21.1992 12.7492C21.7265 12.2219 22.017 11.5208 22.017 10.7751C22.0167 10.0294 21.7265 9.32813 21.1992 8.80078Z" fill="#1CADB5"/>
<path d="M21.8316 8.16797L20.5373 9.4623C20.8879 9.81295 21.0811 10.2792 21.0811 10.7752C21.0811 11.2712 20.8879 11.7374 20.5373 12.088C20.1866 12.4387 19.7204 12.6319 19.2244 12.6319C18.7284 12.6319 18.2622 12.4387 17.9115 12.088C17.9115 12.088 17.9115 12.088 17.9115 12.0878L16.6172 13.3821V13.3824C17.3137 14.0786 18.2395 14.4622 19.2244 14.4622C20.2093 14.4622 21.1351 14.0786 21.8316 13.3824C22.5278 12.6859 22.9115 11.76 22.9115 10.7752C22.9115 9.79029 22.5278 8.86446 21.8316 8.16797Z" fill="#001035"/>
<path d="M29.7319 0.268555L25.2349 4.76586L28.7624 8.2934C29.9439 4.29849 29.9984 1.06323 30 0.927507C30.0032 0.680772 29.9066 0.443192 29.7319 0.268555Z" fill="#FF193D"/>
</svg>
