<svg width="30" height="27" viewBox="0 0 30 27" fill="none" xmlns="http://www.w3.org/2000/svg">
<path d="M25.3125 10.1953C27.0923 10.1953 28.5352 8.75248 28.5352 6.97266C28.5352 5.19283 27.0923 3.75 25.3125 3.75C23.5327 3.75 22.0898 5.19283 22.0898 6.97266C22.0898 8.75248 23.5327 10.1953 25.3125 10.1953Z" fill="#00357B"/>
<path d="M25.3125 10.1953V3.75C27.0896 3.75 28.5352 5.19551 28.5352 6.97266C28.5352 8.7498 27.0896 10.1953 25.3125 10.1953Z" fill="#001737"/>
<path d="M30 16.142V22.4801C30 23.4604 29.1996 24.2578 28.2152 24.2578H22.0348C21.5496 24.2578 21.1559 23.8641 21.1559 23.3789C21.1559 22.5244 20.6836 18.1951 20.6836 16.142C20.6836 13.9617 22.4684 12.1875 24.6621 12.1875H26.0215C28.2152 12.1875 30 13.9617 30 16.142Z" fill="#00357B"/>
<path d="M30 16.142V22.4801C30 23.4604 29.1996 24.2578 28.2152 24.2578H25.3125V12.1875H26.0215C28.2152 12.1875 30 13.9617 30 16.142Z" fill="#001737"/>
<path d="M4.6875 10.1953C6.46732 10.1953 7.91016 8.75248 7.91016 6.97266C7.91016 5.19283 6.46732 3.75 4.6875 3.75C2.90768 3.75 1.46484 5.19283 1.46484 6.97266C1.46484 8.75248 2.90768 10.1953 4.6875 10.1953Z" fill="#00357B"/>
<path d="M4.6875 10.1953V3.75C6.46465 3.75 7.91016 5.19551 7.91016 6.97266C7.91016 8.7498 6.46465 10.1953 4.6875 10.1953Z" fill="#001737"/>
<path d="M9.31641 16.142C9.31641 18.2609 8.84414 22.4856 8.84414 23.3789C8.84414 23.8641 8.45039 24.2578 7.96523 24.2578H1.72324C0.772852 24.2578 0 23.4879 0 22.541V16.142C0 13.9617 1.78477 12.1875 3.97852 12.1875H5.33789C7.53164 12.1875 9.31641 13.9617 9.31641 16.142Z" fill="#00357B"/>
<path d="M9.31641 16.142C9.31641 18.2609 8.84414 22.4856 8.84414 23.3789C8.84414 23.8641 8.45039 24.2578 7.96523 24.2578H4.6875V12.1875H5.33789C7.53164 12.1875 9.31641 13.9617 9.31641 16.142Z" fill="#001737"/>
<path d="M15 10.1953C17.8154 10.1953 20.0977 7.91301 20.0977 5.09766C20.0977 2.2823 17.8154 0 15 0C12.1846 0 9.90234 2.2823 9.90234 5.09766C9.90234 7.91301 12.1846 10.1953 15 10.1953Z" fill="#58B354"/>
<path d="M15 10.1953V0C17.8107 0 20.0977 2.28691 20.0977 5.09766C20.0977 7.9084 17.8107 10.1953 15 10.1953Z" fill="#00A963"/>
<path d="M22.9102 19.2785V24.0809C22.9102 25.2123 21.9896 26.1328 20.8582 26.1328H9.1418C8.01035 26.1328 7.08984 25.2123 7.08984 24.0809V19.2785C7.08984 15.3686 10.2709 12.1875 14.1809 12.1875H15.8191C19.7291 12.1875 22.9102 15.3686 22.9102 19.2785Z" fill="#58B354"/>
<path d="M22.9102 19.2785V24.0809C22.9102 25.2123 21.9896 26.1328 20.8582 26.1328H15V12.1875H15.8191C19.7291 12.1875 22.9102 15.3686 22.9102 19.2785Z" fill="#00A963"/>
</svg>
