<svg width="26" height="30" viewBox="0 0 26 30" fill="none" xmlns="http://www.w3.org/2000/svg">
<path d="M19.551 7.22511C19.551 9.21066 18.8389 10.9293 17.4343 12.3342C16.0296 13.7389 14.3107 14.4509 12.3252 14.4509H12.3217C10.3387 14.4502 8.62096 13.7382 7.21631 12.3342C5.81143 10.9293 5.09961 9.21066 5.09961 7.22511C5.09961 5.24025 5.81143 3.52135 7.21631 2.1167C8.62027 0.712509 10.338 0.000686648 12.3217 0H12.3252C14.31 0 16.0289 0.712051 17.4343 2.1167C18.8389 3.52135 19.551 5.24025 19.551 7.22511Z" fill="#FFBB85"/>
<path d="M25.0294 24.8403C25.0294 26.4068 24.5311 27.675 23.5497 28.6091C22.5797 29.5322 21.2968 29.9998 19.7369 29.9998H5.29175C3.73192 29.9998 2.44904 29.5322 1.47972 28.6091C0.497589 27.6743 0 26.4063 0 24.8403C0 24.2379 0.0199127 23.6419 0.0597381 23.0688C0.10025 22.4828 0.18219 21.8452 0.30304 21.1725C0.424805 20.4943 0.58136 19.8532 0.768814 19.2673C0.963364 18.6608 1.22658 18.0625 1.55228 17.4893C1.89056 16.8945 2.2879 16.3763 2.73331 15.9496C3.20023 15.5031 3.77106 15.1444 4.43092 14.8831C5.0885 14.623 5.81749 14.4912 6.59752 14.4912C6.90353 14.4912 7.19994 14.6164 7.77122 14.9886C8.12874 15.2218 8.54073 15.4873 8.99551 15.778C9.38828 16.0284 9.9202 16.2632 10.5778 16.4754C11.1557 16.6624 11.7423 16.7668 12.3219 16.7848C12.3857 16.7871 12.4496 16.7883 12.5134 16.7883C13.157 16.7883 13.808 16.6828 14.4498 16.4754C15.1073 16.2632 15.64 16.0284 16.0325 15.778C16.4921 15.4843 16.9041 15.2191 17.2563 14.9893C17.8281 14.6164 18.124 14.4912 18.4307 14.4912C19.2101 14.4912 19.939 14.623 20.5971 14.8831C21.2569 15.1444 21.8278 15.5038 22.2942 15.9496C22.7403 16.3763 23.1377 16.8945 23.4757 17.4893C23.8017 18.0629 24.0653 18.6608 24.2592 19.2666C24.4469 19.8532 24.6039 20.4943 24.7256 21.173C24.8458 21.8463 24.928 22.484 24.9683 23.0683C25.0088 23.6396 25.0287 24.2356 25.0294 24.8403Z" fill="#6AA9FF"/>
<path d="M12.3252 14.4509H12.3218V0H12.3252C14.3101 0 16.029 0.712051 17.4343 2.1167C18.839 3.52135 19.551 5.24025 19.551 7.22511C19.551 9.21066 18.839 10.9293 17.4343 12.3342C16.0297 13.7389 14.3108 14.4509 12.3252 14.4509Z" fill="#F5A86C"/>
<path d="M25.0293 24.8403C25.0293 26.4068 24.531 27.675 23.5496 28.6091C22.5796 29.5322 21.2967 29.9998 19.7369 29.9998H12.3218V16.7848C12.3856 16.7871 12.4495 16.7883 12.5134 16.7883C13.157 16.7883 13.8079 16.6828 14.4497 16.4754C15.1073 16.2632 15.6399 16.0284 16.0324 15.778C16.492 15.4843 16.904 15.2191 17.2562 14.9893C17.828 14.6164 18.1239 14.4912 18.4306 14.4912C19.21 14.4912 19.939 14.623 20.597 14.8831C21.2569 15.1444 21.8277 15.5038 22.2942 15.9496C22.7402 16.3763 23.1376 16.8945 23.4756 17.4893C23.8016 18.0629 24.0652 18.6608 24.2591 19.2666C24.4468 19.8532 24.6038 20.4943 24.7256 21.173C24.8457 21.8463 24.9279 22.484 24.9682 23.0683C25.0087 23.6396 25.0286 24.2356 25.0293 24.8403Z" fill="#2682FF"/>
</svg>
