<svg width="192" height="192" viewBox="0 0 192 192" fill="none" xmlns="http://www.w3.org/2000/svg">
<g opacity="0.4">
<path d="M3.14754 1.57549C3.14754 2.44561 2.44294 3.15098 1.57377 3.15098C0.704601 3.15098 1.06901e-07 2.44561 6.8867e-08 1.57549C3.08328e-08 0.705372 0.704601 -3.07991e-08 1.57377 -6.87917e-08C2.44294 -1.06784e-07 3.14754 0.705372 3.14754 1.57549Z" fill="#666666"/>
<path d="M3.14754 18.7435C3.14754 19.6136 2.44294 20.319 1.57377 20.319C0.704602 20.319 8.57339e-07 19.6136 8.19305e-07 18.7435C7.81271e-07 17.8734 0.704602 17.168 1.57377 17.168C2.44294 17.168 3.14754 17.8734 3.14754 18.7435Z" fill="#666666"/>
<path d="M3.14754 35.9118C3.14754 36.7819 2.44294 37.4872 1.57377 37.4872C0.704603 37.4872 1.60779e-06 36.7819 1.56975e-06 35.9118C1.53172e-06 35.0416 0.704603 34.3363 1.57377 34.3363C2.44294 34.3363 3.14754 35.0416 3.14754 35.9118Z" fill="#666666"/>
<path d="M3.14754 53.0798C3.14754 53.9499 2.44294 54.6553 1.57377 54.6553C0.704603 54.6553 2.35823e-06 53.9499 2.32019e-06 53.0798C2.28216e-06 52.2097 0.704603 51.5043 1.57377 51.5043C2.44294 51.5043 3.14754 52.2097 3.14754 53.0798Z" fill="#666666"/>
<path d="M3.14754 70.2479C3.14754 71.118 2.44294 71.8233 1.57377 71.8233C0.704604 71.8233 3.10867e-06 71.118 3.07063e-06 70.2479C3.0326e-06 69.3777 0.704604 68.6724 1.57377 68.6724C2.44294 68.6724 3.14754 69.3777 3.14754 70.2479Z" fill="#666666"/>
<path d="M3.14754 87.4159C3.14754 88.286 2.44294 88.9914 1.57377 88.9914C0.704605 88.9914 3.8591e-06 88.286 3.82107e-06 87.4159C3.78304e-06 86.5458 0.704605 85.8404 1.57377 85.8404C2.44294 85.8404 3.14754 86.5458 3.14754 87.4159Z" fill="#666666"/>
<path d="M3.14755 104.584C3.14755 105.454 2.44294 106.16 1.57378 106.16C0.704606 106.16 4.60955e-06 105.454 4.57152e-06 104.584C4.53348e-06 103.714 0.704606 103.009 1.57378 103.009C2.44294 103.009 3.14755 103.714 3.14755 104.584Z" fill="#666666"/>
<path d="M3.14755 121.752C3.14755 122.622 2.44295 123.328 1.57378 123.328C0.704606 123.328 5.35999e-06 122.622 5.32196e-06 121.752C5.28392e-06 120.882 0.704606 120.177 1.57378 120.177C2.44295 120.177 3.14755 120.882 3.14755 121.752Z" fill="#666666"/>
<path d="M3.14755 138.92C3.14755 139.79 2.44295 140.496 1.57378 140.496C0.704607 140.496 6.11043e-06 139.79 6.0724e-06 138.92C6.03436e-06 138.05 0.704607 137.345 1.57378 137.345C2.44295 137.345 3.14755 138.05 3.14755 138.92Z" fill="#666666"/>
<path d="M3.14755 156.088C3.14755 156.958 2.44295 157.664 1.57378 157.664C0.704608 157.664 6.86087e-06 156.958 6.82283e-06 156.088C6.7848e-06 155.218 0.704608 154.513 1.57378 154.513C2.44295 154.513 3.14755 155.218 3.14755 156.088Z" fill="#666666"/>
<path d="M3.14755 173.257C3.14755 174.127 2.44295 174.832 1.57378 174.832C0.704609 174.832 7.61132e-06 174.127 7.57328e-06 173.257C7.53525e-06 172.386 0.704609 171.681 1.57378 171.681C2.44295 171.681 3.14755 172.386 3.14755 173.257Z" fill="#666666"/>
<path d="M3.14755 190.425C3.14755 191.295 2.44295 192 1.57378 192C0.704609 192 8.36175e-06 191.295 8.32372e-06 190.425C8.28569e-06 189.554 0.704609 188.849 1.57378 188.849C2.44295 188.849 3.14755 189.554 3.14755 190.425Z" fill="#666666"/>
<path d="M20.3159 1.57549C20.3159 2.44561 19.6113 3.15098 18.7421 3.15098C17.8729 3.15098 17.1683 2.44561 17.1683 1.57549C17.1683 0.705371 17.8729 -7.81251e-07 18.7421 -8.19244e-07C19.6113 -8.57236e-07 20.3159 0.705371 20.3159 1.57549Z" fill="#666666"/>
<path d="M20.3159 18.7435C20.3159 19.6136 19.6113 20.319 18.7421 20.319C17.8729 20.319 17.1683 19.6136 17.1683 18.7435C17.1683 17.8734 17.8729 17.168 18.7421 17.168C19.6113 17.168 20.3159 17.8734 20.3159 18.7435Z" fill="#666666"/>
<path d="M20.3159 35.9118C20.3159 36.7819 19.6113 37.4872 18.7421 37.4872C17.8729 37.4872 17.1683 36.7819 17.1683 35.9118C17.1683 35.0416 17.8729 34.3363 18.7421 34.3363C19.6113 34.3363 20.3159 35.0416 20.3159 35.9118Z" fill="#666666"/>
<path d="M20.3159 53.0798C20.3159 53.9499 19.6113 54.6553 18.7421 54.6553C17.8729 54.6553 17.1683 53.9499 17.1683 53.0798C17.1683 52.2097 17.8729 51.5043 18.7421 51.5043C19.6113 51.5043 20.3159 52.2097 20.3159 53.0798Z" fill="#666666"/>
<path d="M20.3159 70.2479C20.3159 71.118 19.6113 71.8233 18.7421 71.8233C17.8729 71.8233 17.1683 71.118 17.1683 70.2479C17.1683 69.3777 17.8729 68.6724 18.7421 68.6724C19.6113 68.6724 20.3159 69.3777 20.3159 70.2479Z" fill="#666666"/>
<path d="M20.3159 87.4159C20.3159 88.286 19.6113 88.9914 18.7421 88.9914C17.8729 88.9914 17.1683 88.286 17.1683 87.4159C17.1683 86.5458 17.8729 85.8404 18.7421 85.8404C19.6113 85.8404 20.3159 86.5458 20.3159 87.4159Z" fill="#666666"/>
<path d="M20.3159 104.584C20.3159 105.454 19.6113 106.16 18.7421 106.16C17.8729 106.16 17.1683 105.454 17.1683 104.584C17.1683 103.714 17.8729 103.009 18.7421 103.009C19.6113 103.009 20.3159 103.714 20.3159 104.584Z" fill="#666666"/>
<path d="M20.3159 121.752C20.3159 122.622 19.6113 123.328 18.7421 123.328C17.8729 123.328 17.1683 122.622 17.1683 121.752C17.1683 120.882 17.8729 120.177 18.7421 120.177C19.6113 120.177 20.3159 120.882 20.3159 121.752Z" fill="#666666"/>
<path d="M20.3159 138.92C20.3159 139.79 19.6113 140.496 18.7421 140.496C17.8729 140.496 17.1683 139.79 17.1683 138.92C17.1683 138.05 17.8729 137.345 18.7421 137.345C19.6113 137.345 20.3159 138.05 20.3159 138.92Z" fill="#666666"/>
<path d="M20.3159 156.088C20.3159 156.958 19.6113 157.664 18.7421 157.664C17.8729 157.664 17.1683 156.958 17.1683 156.088C17.1683 155.218 17.8729 154.513 18.7421 154.513C19.6113 154.513 20.3159 155.218 20.3159 156.088Z" fill="#666666"/>
<path d="M20.3159 173.256C20.3159 174.127 19.6113 174.832 18.7421 174.832C17.8729 174.832 17.1683 174.127 17.1683 173.256C17.1683 172.386 17.8729 171.681 18.7421 171.681C19.6113 171.681 20.3159 172.386 20.3159 173.256Z" fill="#666666"/>
<path d="M20.3159 190.425C20.3159 191.295 19.6113 192 18.7421 192C17.8729 192 17.1683 191.295 17.1683 190.425C17.1683 189.554 17.8729 188.849 18.7421 188.849C19.6113 188.849 20.3159 189.554 20.3159 190.425Z" fill="#666666"/>
<path d="M37.4843 1.57549C37.4843 2.44561 36.7797 3.15098 35.9105 3.15098C35.0413 3.15098 34.3367 2.44561 34.3367 1.57549C34.3367 0.705371 35.0413 -1.53171e-06 35.9105 -1.5697e-06C36.7797 -1.60769e-06 37.4843 0.70537 37.4843 1.57549Z" fill="#666666"/>
<path d="M37.4843 18.7435C37.4843 19.6136 36.7797 20.319 35.9105 20.319C35.0413 20.319 34.3367 19.6136 34.3367 18.7435C34.3367 17.8734 35.0413 17.168 35.9105 17.168C36.7797 17.168 37.4843 17.8734 37.4843 18.7435Z" fill="#666666"/>
<path d="M37.4843 35.9118C37.4843 36.7819 36.7797 37.4872 35.9105 37.4872C35.0413 37.4872 34.3367 36.7819 34.3367 35.9118C34.3367 35.0416 35.0413 34.3363 35.9105 34.3363C36.7797 34.3363 37.4843 35.0416 37.4843 35.9118Z" fill="#666666"/>
<path d="M37.4843 53.0798C37.4843 53.9499 36.7797 54.6553 35.9105 54.6553C35.0413 54.6553 34.3367 53.9499 34.3367 53.0798C34.3367 52.2097 35.0413 51.5043 35.9105 51.5043C36.7797 51.5043 37.4843 52.2097 37.4843 53.0798Z" fill="#666666"/>
<path d="M37.4843 70.2479C37.4843 71.118 36.7797 71.8233 35.9105 71.8233C35.0413 71.8233 34.3367 71.118 34.3367 70.2479C34.3367 69.3777 35.0413 68.6724 35.9105 68.6724C36.7797 68.6724 37.4843 69.3777 37.4843 70.2479Z" fill="#666666"/>
<path d="M37.4843 87.4159C37.4843 88.286 36.7797 88.9914 35.9105 88.9914C35.0413 88.9914 34.3367 88.286 34.3367 87.4159C34.3367 86.5458 35.0413 85.8404 35.9105 85.8404C36.7797 85.8404 37.4843 86.5458 37.4843 87.4159Z" fill="#666666"/>
<path d="M37.4843 104.584C37.4843 105.454 36.7797 106.16 35.9105 106.16C35.0413 106.16 34.3367 105.454 34.3367 104.584C34.3367 103.714 35.0413 103.009 35.9105 103.009C36.7797 103.009 37.4843 103.714 37.4843 104.584Z" fill="#666666"/>
<path d="M37.4843 121.752C37.4843 122.622 36.7797 123.328 35.9105 123.328C35.0413 123.328 34.3367 122.622 34.3367 121.752C34.3367 120.882 35.0413 120.177 35.9105 120.177C36.7797 120.177 37.4843 120.882 37.4843 121.752Z" fill="#666666"/>
<path d="M37.4843 138.92C37.4843 139.79 36.7797 140.496 35.9105 140.496C35.0413 140.496 34.3367 139.79 34.3367 138.92C34.3367 138.05 35.0413 137.345 35.9105 137.345C36.7797 137.345 37.4843 138.05 37.4843 138.92Z" fill="#666666"/>
<path d="M37.4843 156.088C37.4843 156.958 36.7797 157.664 35.9105 157.664C35.0413 157.664 34.3367 156.958 34.3367 156.088C34.3367 155.218 35.0413 154.513 35.9105 154.513C36.7797 154.513 37.4843 155.218 37.4843 156.088Z" fill="#666666"/>
<path d="M37.4843 173.256C37.4843 174.127 36.7797 174.832 35.9105 174.832C35.0413 174.832 34.3367 174.127 34.3367 173.256C34.3367 172.386 35.0413 171.681 35.9105 171.681C36.7797 171.681 37.4843 172.386 37.4843 173.256Z" fill="#666666"/>
<path d="M37.4843 190.425C37.4843 191.295 36.7797 192 35.9105 192C35.0413 192 34.3367 191.295 34.3367 190.425C34.3367 189.554 35.0413 188.849 35.9105 188.849C36.7797 188.849 37.4843 189.554 37.4843 190.425Z" fill="#666666"/>
<path d="M54.6528 1.57549C54.6528 2.44561 53.9482 3.15098 53.0791 3.15098C52.2099 3.15098 51.5053 2.44561 51.5053 1.57549C51.5053 0.70537 52.2099 -2.28217e-06 53.0791 -2.32016e-06C53.9482 -2.35815e-06 54.6528 0.70537 54.6528 1.57549Z" fill="#666666"/>
<path d="M54.6528 18.7435C54.6528 19.6136 53.9482 20.319 53.0791 20.319C52.2099 20.319 51.5053 19.6136 51.5053 18.7435C51.5053 17.8734 52.2099 17.168 53.0791 17.168C53.9482 17.168 54.6528 17.8734 54.6528 18.7435Z" fill="#666666"/>
<path d="M54.6528 35.9118C54.6528 36.7819 53.9482 37.4872 53.0791 37.4872C52.2099 37.4872 51.5053 36.7819 51.5053 35.9118C51.5053 35.0416 52.2099 34.3363 53.0791 34.3363C53.9482 34.3363 54.6528 35.0416 54.6528 35.9118Z" fill="#666666"/>
<path d="M54.6528 53.0798C54.6528 53.9499 53.9482 54.6553 53.0791 54.6553C52.2099 54.6553 51.5053 53.9499 51.5053 53.0798C51.5053 52.2097 52.2099 51.5043 53.0791 51.5043C53.9482 51.5043 54.6528 52.2097 54.6528 53.0798Z" fill="#666666"/>
<path d="M54.6528 70.2479C54.6528 71.118 53.9482 71.8233 53.0791 71.8233C52.2099 71.8233 51.5053 71.118 51.5053 70.2479C51.5053 69.3777 52.2099 68.6724 53.0791 68.6724C53.9482 68.6724 54.6528 69.3777 54.6528 70.2479Z" fill="#666666"/>
<path d="M54.6528 87.4159C54.6528 88.286 53.9482 88.9914 53.0791 88.9914C52.2099 88.9914 51.5053 88.286 51.5053 87.4159C51.5053 86.5458 52.2099 85.8404 53.0791 85.8404C53.9482 85.8404 54.6528 86.5458 54.6528 87.4159Z" fill="#666666"/>
<path d="M54.6528 104.584C54.6528 105.454 53.9482 106.16 53.0791 106.16C52.2099 106.16 51.5053 105.454 51.5053 104.584C51.5053 103.714 52.2099 103.009 53.0791 103.009C53.9482 103.009 54.6528 103.714 54.6528 104.584Z" fill="#666666"/>
<path d="M54.6528 121.752C54.6528 122.622 53.9482 123.328 53.0791 123.328C52.2099 123.328 51.5053 122.622 51.5053 121.752C51.5053 120.882 52.2099 120.177 53.0791 120.177C53.9482 120.177 54.6528 120.882 54.6528 121.752Z" fill="#666666"/>
<path d="M54.6528 138.92C54.6528 139.79 53.9482 140.496 53.0791 140.496C52.2099 140.496 51.5053 139.79 51.5053 138.92C51.5053 138.05 52.2099 137.345 53.0791 137.345C53.9482 137.345 54.6528 138.05 54.6528 138.92Z" fill="#666666"/>
<path d="M54.6528 156.088C54.6528 156.958 53.9482 157.664 53.0791 157.664C52.2099 157.664 51.5053 156.958 51.5053 156.088C51.5053 155.218 52.2099 154.513 53.0791 154.513C53.9482 154.513 54.6528 155.218 54.6528 156.088Z" fill="#666666"/>
<path d="M54.6528 173.256C54.6528 174.127 53.9482 174.832 53.0791 174.832C52.2099 174.832 51.5053 174.127 51.5053 173.256C51.5053 172.386 52.2099 171.681 53.0791 171.681C53.9482 171.681 54.6528 172.386 54.6528 173.256Z" fill="#666666"/>
<path d="M54.6528 190.425C54.6528 191.295 53.9482 192 53.0791 192C52.2099 192 51.5053 191.295 51.5053 190.425C51.5053 189.554 52.2099 188.849 53.0791 188.849C53.9482 188.849 54.6528 189.554 54.6528 190.425Z" fill="#666666"/>
<path d="M71.8212 1.57549C71.8212 2.44561 71.1166 3.15098 70.2475 3.15098C69.3783 3.15098 68.6737 2.44561 68.6737 1.57549C68.6737 0.705369 69.3783 -3.03262e-06 70.2475 -3.07061e-06C71.1166 -3.10861e-06 71.8212 0.705369 71.8212 1.57549Z" fill="#666666"/>
<path d="M71.8212 18.7435C71.8212 19.6136 71.1166 20.319 70.2475 20.319C69.3783 20.319 68.6737 19.6136 68.6737 18.7435C68.6737 17.8734 69.3783 17.168 70.2475 17.168C71.1166 17.168 71.8212 17.8734 71.8212 18.7435Z" fill="#666666"/>
<path d="M71.8212 35.9118C71.8212 36.7819 71.1166 37.4872 70.2475 37.4872C69.3783 37.4872 68.6737 36.7819 68.6737 35.9118C68.6737 35.0416 69.3783 34.3363 70.2475 34.3363C71.1166 34.3363 71.8212 35.0416 71.8212 35.9118Z" fill="#666666"/>
<path d="M71.8212 53.0798C71.8212 53.9499 71.1166 54.6553 70.2475 54.6553C69.3783 54.6553 68.6737 53.9499 68.6737 53.0798C68.6737 52.2097 69.3783 51.5043 70.2475 51.5043C71.1166 51.5043 71.8212 52.2097 71.8212 53.0798Z" fill="#666666"/>
<path d="M71.8212 70.2479C71.8212 71.118 71.1166 71.8233 70.2475 71.8233C69.3783 71.8233 68.6737 71.118 68.6737 70.2479C68.6737 69.3777 69.3783 68.6724 70.2475 68.6724C71.1166 68.6724 71.8212 69.3777 71.8212 70.2479Z" fill="#666666"/>
<path d="M71.8212 87.4159C71.8212 88.286 71.1166 88.9914 70.2475 88.9914C69.3783 88.9914 68.6737 88.286 68.6737 87.4159C68.6737 86.5458 69.3783 85.8404 70.2475 85.8404C71.1166 85.8404 71.8212 86.5458 71.8212 87.4159Z" fill="#666666"/>
<path d="M71.8212 104.584C71.8212 105.454 71.1166 106.16 70.2475 106.16C69.3783 106.16 68.6737 105.454 68.6737 104.584C68.6737 103.714 69.3783 103.009 70.2475 103.009C71.1166 103.009 71.8212 103.714 71.8212 104.584Z" fill="#666666"/>
<path d="M71.8212 121.752C71.8212 122.622 71.1166 123.328 70.2475 123.328C69.3783 123.328 68.6737 122.622 68.6737 121.752C68.6737 120.882 69.3783 120.177 70.2475 120.177C71.1166 120.177 71.8212 120.882 71.8212 121.752Z" fill="#666666"/>
<path d="M71.8212 138.92C71.8212 139.79 71.1166 140.496 70.2475 140.496C69.3783 140.496 68.6737 139.79 68.6737 138.92C68.6737 138.05 69.3783 137.345 70.2475 137.345C71.1166 137.345 71.8212 138.05 71.8212 138.92Z" fill="#666666"/>
<path d="M71.8212 156.088C71.8212 156.958 71.1166 157.664 70.2475 157.664C69.3783 157.664 68.6737 156.958 68.6737 156.088C68.6737 155.218 69.3783 154.513 70.2475 154.513C71.1166 154.513 71.8212 155.218 71.8212 156.088Z" fill="#666666"/>
<path d="M71.8212 173.256C71.8212 174.127 71.1166 174.832 70.2475 174.832C69.3783 174.832 68.6737 174.127 68.6737 173.256C68.6737 172.386 69.3783 171.681 70.2475 171.681C71.1166 171.681 71.8212 172.386 71.8212 173.256Z" fill="#666666"/>
<path d="M71.8212 190.425C71.8212 191.295 71.1166 192 70.2475 192C69.3783 192 68.6737 191.295 68.6737 190.425C68.6737 189.554 69.3783 188.849 70.2475 188.849C71.1166 188.849 71.8212 189.554 71.8212 190.425Z" fill="#666666"/>
<path d="M88.9896 1.57549C88.9896 2.44561 88.285 3.15098 87.4158 3.15098C86.5466 3.15098 85.842 2.44561 85.842 1.57549C85.842 0.705368 86.5466 -3.78307e-06 87.4158 -3.82107e-06C88.285 -3.85906e-06 88.9896 0.705368 88.9896 1.57549Z" fill="#666666"/>
<path d="M88.9896 18.7435C88.9896 19.6136 88.285 20.319 87.4158 20.319C86.5466 20.319 85.842 19.6136 85.842 18.7435C85.842 17.8734 86.5466 17.168 87.4158 17.168C88.285 17.168 88.9896 17.8734 88.9896 18.7435Z" fill="#666666"/>
<path d="M88.9896 35.9118C88.9896 36.7819 88.285 37.4872 87.4158 37.4872C86.5466 37.4872 85.842 36.7819 85.842 35.9118C85.842 35.0416 86.5466 34.3363 87.4158 34.3363C88.285 34.3363 88.9896 35.0416 88.9896 35.9118Z" fill="#666666"/>
<path d="M88.9896 53.0798C88.9896 53.9499 88.285 54.6553 87.4158 54.6553C86.5466 54.6553 85.842 53.9499 85.842 53.0798C85.842 52.2097 86.5466 51.5043 87.4158 51.5043C88.285 51.5043 88.9896 52.2097 88.9896 53.0798Z" fill="#666666"/>
<path d="M88.9896 70.2479C88.9896 71.118 88.285 71.8233 87.4158 71.8233C86.5466 71.8233 85.842 71.118 85.842 70.2479C85.842 69.3777 86.5466 68.6724 87.4158 68.6724C88.285 68.6724 88.9896 69.3777 88.9896 70.2479Z" fill="#666666"/>
<path d="M88.9896 87.4159C88.9896 88.286 88.285 88.9914 87.4158 88.9914C86.5466 88.9914 85.842 88.286 85.842 87.4159C85.842 86.5458 86.5466 85.8404 87.4158 85.8404C88.285 85.8404 88.9896 86.5458 88.9896 87.4159Z" fill="#666666"/>
<path d="M88.9896 104.584C88.9896 105.454 88.285 106.16 87.4158 106.16C86.5466 106.16 85.842 105.454 85.842 104.584C85.842 103.714 86.5466 103.009 87.4158 103.009C88.285 103.009 88.9896 103.714 88.9896 104.584Z" fill="#666666"/>
<path d="M88.9896 121.752C88.9896 122.622 88.285 123.328 87.4158 123.328C86.5466 123.328 85.842 122.622 85.842 121.752C85.842 120.882 86.5466 120.177 87.4158 120.177C88.285 120.177 88.9896 120.882 88.9896 121.752Z" fill="#666666"/>
<path d="M88.9896 138.92C88.9896 139.79 88.285 140.496 87.4158 140.496C86.5466 140.496 85.842 139.79 85.842 138.92C85.842 138.05 86.5466 137.345 87.4158 137.345C88.285 137.345 88.9896 138.05 88.9896 138.92Z" fill="#666666"/>
<path d="M88.9896 156.088C88.9896 156.958 88.285 157.664 87.4158 157.664C86.5466 157.664 85.842 156.958 85.842 156.088C85.842 155.218 86.5466 154.513 87.4158 154.513C88.285 154.513 88.9896 155.218 88.9896 156.088Z" fill="#666666"/>
<path d="M88.9896 173.256C88.9896 174.127 88.285 174.832 87.4158 174.832C86.5466 174.832 85.842 174.127 85.842 173.256C85.842 172.386 86.5466 171.681 87.4158 171.681C88.285 171.681 88.9896 172.386 88.9896 173.256Z" fill="#666666"/>
<path d="M88.9896 190.425C88.9896 191.295 88.285 192 87.4158 192C86.5466 192 85.842 191.295 85.842 190.425C85.842 189.554 86.5466 188.849 87.4158 188.849C88.285 188.849 88.9896 189.554 88.9896 190.425Z" fill="#666666"/>
<path d="M106.158 1.57549C106.158 2.44561 105.453 3.15098 104.584 3.15098C103.715 3.15098 103.01 2.44561 103.01 1.57549C103.01 0.705368 103.715 -4.53353e-06 104.584 -4.57152e-06C105.453 -4.60951e-06 106.158 0.705367 106.158 1.57549Z" fill="#666666"/>
<path d="M106.158 18.7435C106.158 19.6136 105.453 20.319 104.584 20.319C103.715 20.319 103.01 19.6136 103.01 18.7435C103.01 17.8734 103.715 17.168 104.584 17.168C105.453 17.168 106.158 17.8734 106.158 18.7435Z" fill="#666666"/>
<path d="M106.158 35.9117C106.158 36.7819 105.453 37.4872 104.584 37.4872C103.715 37.4872 103.01 36.7819 103.01 35.9118C103.01 35.0416 103.715 34.3363 104.584 34.3363C105.453 34.3363 106.158 35.0416 106.158 35.9117Z" fill="#666666"/>
<path d="M106.158 53.0798C106.158 53.9499 105.453 54.6553 104.584 54.6553C103.715 54.6553 103.01 53.9499 103.01 53.0798C103.01 52.2097 103.715 51.5043 104.584 51.5043C105.453 51.5043 106.158 52.2097 106.158 53.0798Z" fill="#666666"/>
<path d="M106.158 70.2479C106.158 71.118 105.453 71.8233 104.584 71.8233C103.715 71.8233 103.01 71.118 103.01 70.2479C103.01 69.3777 103.715 68.6724 104.584 68.6724C105.453 68.6724 106.158 69.3777 106.158 70.2479Z" fill="#666666"/>
<path d="M106.158 87.4159C106.158 88.286 105.453 88.9914 104.584 88.9914C103.715 88.9914 103.01 88.286 103.01 87.4159C103.01 86.5458 103.715 85.8404 104.584 85.8404C105.453 85.8404 106.158 86.5458 106.158 87.4159Z" fill="#666666"/>
<path d="M106.158 104.584C106.158 105.454 105.453 106.16 104.584 106.16C103.715 106.16 103.01 105.454 103.01 104.584C103.01 103.714 103.715 103.009 104.584 103.009C105.453 103.009 106.158 103.714 106.158 104.584Z" fill="#666666"/>
<path d="M106.158 121.752C106.158 122.622 105.453 123.328 104.584 123.328C103.715 123.328 103.01 122.622 103.01 121.752C103.01 120.882 103.715 120.177 104.584 120.177C105.453 120.177 106.158 120.882 106.158 121.752Z" fill="#666666"/>
<path d="M106.158 138.92C106.158 139.79 105.453 140.496 104.584 140.496C103.715 140.496 103.01 139.79 103.01 138.92C103.01 138.05 103.715 137.345 104.584 137.345C105.453 137.345 106.158 138.05 106.158 138.92Z" fill="#666666"/>
<path d="M106.158 156.088C106.158 156.958 105.453 157.664 104.584 157.664C103.715 157.664 103.01 156.958 103.01 156.088C103.01 155.218 103.715 154.513 104.584 154.513C105.453 154.513 106.158 155.218 106.158 156.088Z" fill="#666666"/>
<path d="M106.158 173.256C106.158 174.127 105.453 174.832 104.584 174.832C103.715 174.832 103.01 174.127 103.01 173.256C103.01 172.386 103.715 171.681 104.584 171.681C105.453 171.681 106.158 172.386 106.158 173.256Z" fill="#666666"/>
<path d="M106.158 190.425C106.158 191.295 105.453 192 104.584 192C103.715 192 103.01 191.295 103.01 190.425C103.01 189.554 103.715 188.849 104.584 188.849C105.453 188.849 106.158 189.554 106.158 190.425Z" fill="#666666"/>
<path d="M123.326 1.57549C123.326 2.44561 122.622 3.15098 121.753 3.15098C120.883 3.15098 120.179 2.44561 120.179 1.57549C120.179 0.705367 120.883 -5.28398e-06 121.753 -5.32197e-06C122.622 -5.35996e-06 123.326 0.705367 123.326 1.57549Z" fill="#666666"/>
<path d="M123.326 18.7435C123.326 19.6136 122.622 20.319 121.753 20.319C120.883 20.319 120.179 19.6136 120.179 18.7435C120.179 17.8734 120.883 17.168 121.753 17.168C122.622 17.168 123.326 17.8734 123.326 18.7435Z" fill="#666666"/>
<path d="M123.326 35.9117C123.326 36.7819 122.622 37.4872 121.753 37.4872C120.883 37.4872 120.179 36.7819 120.179 35.9117C120.179 35.0416 120.883 34.3363 121.753 34.3363C122.622 34.3363 123.326 35.0416 123.326 35.9117Z" fill="#666666"/>
<path d="M123.326 53.0798C123.326 53.9499 122.622 54.6553 121.753 54.6553C120.883 54.6553 120.179 53.9499 120.179 53.0798C120.179 52.2097 120.883 51.5043 121.753 51.5043C122.622 51.5043 123.326 52.2097 123.326 53.0798Z" fill="#666666"/>
<path d="M123.326 70.2479C123.326 71.118 122.622 71.8233 121.753 71.8233C120.883 71.8233 120.179 71.118 120.179 70.2479C120.179 69.3777 120.883 68.6724 121.753 68.6724C122.622 68.6724 123.326 69.3777 123.326 70.2479Z" fill="#666666"/>
<path d="M123.326 87.4159C123.326 88.286 122.622 88.9914 121.753 88.9914C120.883 88.9914 120.179 88.286 120.179 87.4159C120.179 86.5458 120.883 85.8404 121.753 85.8404C122.622 85.8404 123.326 86.5458 123.326 87.4159Z" fill="#666666"/>
<path d="M123.326 104.584C123.326 105.454 122.622 106.16 121.753 106.16C120.883 106.16 120.179 105.454 120.179 104.584C120.179 103.714 120.883 103.009 121.753 103.009C122.622 103.009 123.326 103.714 123.326 104.584Z" fill="#666666"/>
<path d="M123.326 121.752C123.326 122.622 122.622 123.328 121.753 123.328C120.883 123.328 120.179 122.622 120.179 121.752C120.179 120.882 120.883 120.177 121.753 120.177C122.622 120.177 123.326 120.882 123.326 121.752Z" fill="#666666"/>
<path d="M123.326 138.92C123.326 139.79 122.622 140.496 121.753 140.496C120.883 140.496 120.179 139.79 120.179 138.92C120.179 138.05 120.883 137.345 121.753 137.345C122.622 137.345 123.326 138.05 123.326 138.92Z" fill="#666666"/>
<path d="M123.326 156.088C123.326 156.958 122.622 157.664 121.753 157.664C120.883 157.664 120.179 156.958 120.179 156.088C120.179 155.218 120.883 154.513 121.753 154.513C122.622 154.513 123.326 155.218 123.326 156.088Z" fill="#666666"/>
<path d="M123.326 173.256C123.326 174.127 122.622 174.832 121.753 174.832C120.883 174.832 120.179 174.127 120.179 173.256C120.179 172.386 120.883 171.681 121.753 171.681C122.622 171.681 123.326 172.386 123.326 173.256Z" fill="#666666"/>
<path d="M123.326 190.425C123.326 191.295 122.622 192 121.753 192C120.883 192 120.179 191.295 120.179 190.425C120.179 189.554 120.883 188.849 121.753 188.849C122.622 188.849 123.326 189.554 123.326 190.425Z" fill="#666666"/>
<path d="M140.495 1.57549C140.495 2.44561 139.79 3.15098 138.921 3.15098C138.052 3.15098 137.347 2.44561 137.347 1.57549C137.347 0.705366 138.052 -6.03443e-06 138.921 -6.07243e-06C139.79 -6.11042e-06 140.495 0.705366 140.495 1.57549Z" fill="#666666"/>
<path d="M140.495 18.7435C140.495 19.6136 139.79 20.319 138.921 20.319C138.052 20.319 137.347 19.6136 137.347 18.7435C137.347 17.8734 138.052 17.168 138.921 17.168C139.79 17.168 140.495 17.8734 140.495 18.7435Z" fill="#666666"/>
<path d="M140.495 35.9117C140.495 36.7819 139.79 37.4872 138.921 37.4872C138.052 37.4872 137.347 36.7819 137.347 35.9117C137.347 35.0416 138.052 34.3363 138.921 34.3363C139.79 34.3363 140.495 35.0416 140.495 35.9117Z" fill="#666666"/>
<path d="M140.495 53.0798C140.495 53.9499 139.79 54.6553 138.921 54.6553C138.052 54.6553 137.347 53.9499 137.347 53.0798C137.347 52.2097 138.052 51.5043 138.921 51.5043C139.79 51.5043 140.495 52.2097 140.495 53.0798Z" fill="#666666"/>
<path d="M140.495 70.2478C140.495 71.118 139.79 71.8233 138.921 71.8233C138.052 71.8233 137.347 71.118 137.347 70.2479C137.347 69.3777 138.052 68.6724 138.921 68.6724C139.79 68.6724 140.495 69.3777 140.495 70.2478Z" fill="#666666"/>
<path d="M140.495 87.4159C140.495 88.286 139.79 88.9914 138.921 88.9914C138.052 88.9914 137.347 88.286 137.347 87.4159C137.347 86.5458 138.052 85.8404 138.921 85.8404C139.79 85.8404 140.495 86.5458 140.495 87.4159Z" fill="#666666"/>
<path d="M140.495 104.584C140.495 105.454 139.79 106.16 138.921 106.16C138.052 106.16 137.347 105.454 137.347 104.584C137.347 103.714 138.052 103.009 138.921 103.009C139.79 103.009 140.495 103.714 140.495 104.584Z" fill="#666666"/>
<path d="M140.495 121.752C140.495 122.622 139.79 123.328 138.921 123.328C138.052 123.328 137.347 122.622 137.347 121.752C137.347 120.882 138.052 120.177 138.921 120.177C139.79 120.177 140.495 120.882 140.495 121.752Z" fill="#666666"/>
<path d="M140.495 138.92C140.495 139.79 139.79 140.496 138.921 140.496C138.052 140.496 137.347 139.79 137.347 138.92C137.347 138.05 138.052 137.345 138.921 137.345C139.79 137.345 140.495 138.05 140.495 138.92Z" fill="#666666"/>
<path d="M140.495 156.088C140.495 156.958 139.79 157.664 138.921 157.664C138.052 157.664 137.347 156.958 137.347 156.088C137.347 155.218 138.052 154.513 138.921 154.513C139.79 154.513 140.495 155.218 140.495 156.088Z" fill="#666666"/>
<path d="M140.495 173.256C140.495 174.127 139.79 174.832 138.921 174.832C138.052 174.832 137.347 174.127 137.347 173.256C137.347 172.386 138.052 171.681 138.921 171.681C139.79 171.681 140.495 172.386 140.495 173.256Z" fill="#666666"/>
<path d="M140.495 190.425C140.495 191.295 139.79 192 138.921 192C138.052 192 137.347 191.295 137.347 190.425C137.347 189.554 138.052 188.849 138.921 188.849C139.79 188.849 140.495 189.554 140.495 190.425Z" fill="#666666"/>
<path d="M157.663 1.57549C157.663 2.44561 156.959 3.15098 156.089 3.15098C155.22 3.15098 154.516 2.44561 154.516 1.57549C154.516 0.705365 155.22 -6.7849e-06 156.089 -6.82289e-06C156.959 -6.86088e-06 157.663 0.705365 157.663 1.57549Z" fill="#666666"/>
<path d="M157.663 18.7435C157.663 19.6136 156.959 20.319 156.089 20.319C155.22 20.319 154.516 19.6136 154.516 18.7435C154.516 17.8734 155.22 17.168 156.089 17.168C156.959 17.168 157.663 17.8734 157.663 18.7435Z" fill="#666666"/>
<path d="M157.663 35.9117C157.663 36.7819 156.959 37.4872 156.089 37.4872C155.22 37.4872 154.516 36.7819 154.516 35.9117C154.516 35.0416 155.22 34.3363 156.089 34.3363C156.959 34.3363 157.663 35.0416 157.663 35.9117Z" fill="#666666"/>
<path d="M157.663 53.0798C157.663 53.9499 156.959 54.6553 156.089 54.6553C155.22 54.6553 154.516 53.9499 154.516 53.0798C154.516 52.2097 155.22 51.5043 156.089 51.5043C156.959 51.5043 157.663 52.2097 157.663 53.0798Z" fill="#666666"/>
<path d="M157.663 70.2478C157.663 71.118 156.959 71.8233 156.089 71.8233C155.22 71.8233 154.516 71.118 154.516 70.2478C154.516 69.3777 155.22 68.6724 156.089 68.6724C156.959 68.6724 157.663 69.3777 157.663 70.2478Z" fill="#666666"/>
<path d="M157.663 87.4159C157.663 88.286 156.959 88.9914 156.089 88.9914C155.22 88.9914 154.516 88.286 154.516 87.4159C154.516 86.5458 155.22 85.8404 156.089 85.8404C156.959 85.8404 157.663 86.5458 157.663 87.4159Z" fill="#666666"/>
<path d="M157.663 104.584C157.663 105.454 156.959 106.16 156.089 106.16C155.22 106.16 154.516 105.454 154.516 104.584C154.516 103.714 155.22 103.009 156.089 103.009C156.959 103.009 157.663 103.714 157.663 104.584Z" fill="#666666"/>
<path d="M157.663 121.752C157.663 122.622 156.959 123.328 156.089 123.328C155.22 123.328 154.516 122.622 154.516 121.752C154.516 120.882 155.22 120.177 156.089 120.177C156.959 120.177 157.663 120.882 157.663 121.752Z" fill="#666666"/>
<path d="M157.663 138.92C157.663 139.79 156.959 140.496 156.089 140.496C155.22 140.496 154.516 139.79 154.516 138.92C154.516 138.05 155.22 137.345 156.089 137.345C156.959 137.345 157.663 138.05 157.663 138.92Z" fill="#666666"/>
<path d="M157.663 156.088C157.663 156.958 156.959 157.664 156.089 157.664C155.22 157.664 154.516 156.958 154.516 156.088C154.516 155.218 155.22 154.513 156.089 154.513C156.959 154.513 157.663 155.218 157.663 156.088Z" fill="#666666"/>
<path d="M157.663 173.256C157.663 174.127 156.959 174.832 156.09 174.832C155.22 174.832 154.516 174.127 154.516 173.256C154.516 172.386 155.22 171.681 156.09 171.681C156.959 171.681 157.663 172.386 157.663 173.256Z" fill="#666666"/>
<path d="M157.663 190.425C157.663 191.295 156.959 192 156.09 192C155.22 192 154.516 191.295 154.516 190.425C154.516 189.554 155.22 188.849 156.09 188.849C156.959 188.849 157.663 189.554 157.663 190.425Z" fill="#666666"/>
<path d="M174.832 1.57548C174.832 2.44561 174.127 3.15098 173.258 3.15098C172.389 3.15098 171.684 2.44561 171.684 1.57548C171.684 0.705365 172.389 -7.53535e-06 173.258 -7.57334e-06C174.127 -7.61133e-06 174.832 0.705364 174.832 1.57548Z" fill="#666666"/>
<path d="M174.832 18.7435C174.832 19.6136 174.127 20.319 173.258 20.319C172.389 20.319 171.684 19.6136 171.684 18.7435C171.684 17.8734 172.389 17.168 173.258 17.168C174.127 17.168 174.832 17.8734 174.832 18.7435Z" fill="#666666"/>
<path d="M174.832 35.9117C174.832 36.7819 174.127 37.4872 173.258 37.4872C172.389 37.4872 171.684 36.7819 171.684 35.9117C171.684 35.0416 172.389 34.3363 173.258 34.3363C174.127 34.3363 174.832 35.0416 174.832 35.9117Z" fill="#666666"/>
<path d="M174.832 53.0798C174.832 53.9499 174.127 54.6553 173.258 54.6553C172.389 54.6553 171.684 53.9499 171.684 53.0798C171.684 52.2097 172.389 51.5043 173.258 51.5043C174.127 51.5043 174.832 52.2097 174.832 53.0798Z" fill="#666666"/>
<path d="M174.832 70.2478C174.832 71.118 174.127 71.8233 173.258 71.8233C172.389 71.8233 171.684 71.118 171.684 70.2478C171.684 69.3777 172.389 68.6724 173.258 68.6724C174.127 68.6724 174.832 69.3777 174.832 70.2478Z" fill="#666666"/>
<path d="M174.832 87.4159C174.832 88.286 174.127 88.9914 173.258 88.9914C172.389 88.9914 171.684 88.286 171.684 87.4159C171.684 86.5458 172.389 85.8404 173.258 85.8404C174.127 85.8404 174.832 86.5458 174.832 87.4159Z" fill="#666666"/>
<path d="M174.832 104.584C174.832 105.454 174.127 106.16 173.258 106.16C172.389 106.16 171.684 105.454 171.684 104.584C171.684 103.714 172.389 103.009 173.258 103.009C174.127 103.009 174.832 103.714 174.832 104.584Z" fill="#666666"/>
<path d="M174.832 121.752C174.832 122.622 174.127 123.328 173.258 123.328C172.389 123.328 171.684 122.622 171.684 121.752C171.684 120.882 172.389 120.177 173.258 120.177C174.127 120.177 174.832 120.882 174.832 121.752Z" fill="#666666"/>
<path d="M174.832 138.92C174.832 139.79 174.127 140.496 173.258 140.496C172.389 140.496 171.684 139.79 171.684 138.92C171.684 138.05 172.389 137.345 173.258 137.345C174.127 137.345 174.832 138.05 174.832 138.92Z" fill="#666666"/>
<path d="M174.832 156.088C174.832 156.958 174.127 157.664 173.258 157.664C172.389 157.664 171.684 156.958 171.684 156.088C171.684 155.218 172.389 154.513 173.258 154.513C174.127 154.513 174.832 155.218 174.832 156.088Z" fill="#666666"/>
<path d="M174.832 173.256C174.832 174.127 174.127 174.832 173.258 174.832C172.389 174.832 171.684 174.127 171.684 173.256C171.684 172.386 172.389 171.681 173.258 171.681C174.127 171.681 174.832 172.386 174.832 173.256Z" fill="#666666"/>
<path d="M174.832 190.425C174.832 191.295 174.127 192 173.258 192C172.389 192 171.684 191.295 171.684 190.425C171.684 189.554 172.389 188.849 173.258 188.849C174.127 188.849 174.832 189.554 174.832 190.425Z" fill="#666666"/>
<path d="M192 1.57548C192 2.4456 191.295 3.15098 190.426 3.15098C189.557 3.15098 188.852 2.4456 188.852 1.57548C188.852 0.705364 189.557 -8.2858e-06 190.426 -8.32379e-06C191.295 -8.36179e-06 192 0.705364 192 1.57548Z" fill="#666666"/>
<path d="M192 18.7435C192 19.6136 191.295 20.319 190.426 20.319C189.557 20.319 188.852 19.6136 188.852 18.7435C188.852 17.8734 189.557 17.168 190.426 17.168C191.295 17.168 192 17.8734 192 18.7435Z" fill="#666666"/>
<path d="M192 35.9117C192 36.7819 191.295 37.4872 190.426 37.4872C189.557 37.4872 188.852 36.7819 188.852 35.9117C188.852 35.0416 189.557 34.3363 190.426 34.3363C191.295 34.3363 192 35.0416 192 35.9117Z" fill="#666666"/>
<path d="M192 53.0798C192 53.9499 191.295 54.6553 190.426 54.6553C189.557 54.6553 188.852 53.9499 188.852 53.0798C188.852 52.2097 189.557 51.5043 190.426 51.5043C191.295 51.5043 192 52.2097 192 53.0798Z" fill="#666666"/>
<path d="M192 70.2478C192 71.118 191.295 71.8233 190.426 71.8233C189.557 71.8233 188.852 71.118 188.852 70.2478C188.852 69.3777 189.557 68.6724 190.426 68.6724C191.295 68.6724 192 69.3777 192 70.2478Z" fill="#666666"/>
<path d="M192 87.4159C192 88.286 191.295 88.9914 190.426 88.9914C189.557 88.9914 188.852 88.286 188.852 87.4159C188.852 86.5458 189.557 85.8404 190.426 85.8404C191.295 85.8404 192 86.5458 192 87.4159Z" fill="#666666"/>
<path d="M192 104.584C192 105.454 191.295 106.16 190.426 106.16C189.557 106.16 188.852 105.454 188.852 104.584C188.852 103.714 189.557 103.009 190.426 103.009C191.295 103.009 192 103.714 192 104.584Z" fill="#666666"/>
<path d="M192 121.752C192 122.622 191.295 123.328 190.426 123.328C189.557 123.328 188.852 122.622 188.852 121.752C188.852 120.882 189.557 120.177 190.426 120.177C191.295 120.177 192 120.882 192 121.752Z" fill="#666666"/>
<path d="M192 138.92C192 139.79 191.295 140.496 190.426 140.496C189.557 140.496 188.852 139.79 188.852 138.92C188.852 138.05 189.557 137.345 190.426 137.345C191.295 137.345 192 138.05 192 138.92Z" fill="#666666"/>
<path d="M192 156.088C192 156.958 191.295 157.664 190.426 157.664C189.557 157.664 188.852 156.958 188.852 156.088C188.852 155.218 189.557 154.513 190.426 154.513C191.295 154.513 192 155.218 192 156.088Z" fill="#666666"/>
<path d="M192 173.256C192 174.127 191.295 174.832 190.426 174.832C189.557 174.832 188.852 174.127 188.852 173.256C188.852 172.386 189.557 171.681 190.426 171.681C191.295 171.681 192 172.386 192 173.256Z" fill="#666666"/>
<path d="M192 190.425C192 191.295 191.295 192 190.426 192C189.557 192 188.852 191.295 188.852 190.425C188.852 189.554 189.557 188.849 190.426 188.849C191.295 188.849 192 189.554 192 190.425Z" fill="#666666"/>
</g>
</svg>
