<svg width="170" height="113" viewBox="0 0 170 113" fill="none" xmlns="http://www.w3.org/2000/svg">
<g clip-path="url(#clip0_2455_90221)">
<path d="M128.16 92.9706C127.365 92.9706 126.72 92.4566 126.72 91.8225C126.72 91.1885 127.365 90.6744 128.16 90.6744C128.955 90.6744 129.599 91.1885 129.599 91.8225C129.599 92.4566 128.955 92.9706 128.16 92.9706Z" fill="#E8EDFF"/>
<path d="M118.014 68.2686C118.657 80.0771 95.5026 104.088 66.963 95.2009C53.6896 91.0671 54.8139 84.2061 44.7208 75.1637C38.7047 69.7743 30.0608 65.699 27.6566 57.8651C25.5797 51.1034 26.8534 43.8354 30.454 39.108C38.5517 28.4766 54.8996 21.1966 71.0075 37.9473C87.1154 54.6981 116.353 37.8138 118.014 68.2686Z" fill="#F2F5FF"/>
<path fill-rule="evenodd" clip-rule="evenodd" d="M97.6513 102.119L88.6836 89.4279L97.6513 102.119Z" fill="white"/>
<path d="M97.6513 102.119L88.6836 89.4279" stroke="#E8EDFF" stroke-width="1.88889" stroke-linecap="round" stroke-linejoin="round"/>
<path fill-rule="evenodd" clip-rule="evenodd" d="M85.0098 85.9556C84.0963 86.8665 84.0963 88.3433 85.0098 89.2542C85.9235 90.1652 87.4047 90.1652 88.3182 89.2542C89.2319 88.3433 89.2319 86.8665 88.3182 85.9556C87.4047 85.0446 85.9235 85.0446 85.0098 85.9556Z" fill="white"/>
<path d="M85.0098 85.9556C84.0963 86.8665 84.0963 88.3433 85.0098 89.2542C85.9235 90.1652 87.4047 90.1652 88.3182 89.2542C89.2319 88.3433 89.2319 86.8665 88.3182 85.9556C87.4047 85.0446 85.9235 85.0446 85.0098 85.9556Z" stroke="#E8EDFF" stroke-width="1.88889" stroke-linecap="round" stroke-linejoin="round"/>
<path d="M65.9771 81.3247C71.5588 81.3247 76.0836 76.8132 76.0836 71.2479C76.0836 65.6827 71.5588 61.1711 65.9771 61.1711C60.3954 61.1711 55.8706 65.6827 55.8706 71.2479C55.8706 76.8132 60.3954 81.3247 65.9771 81.3247Z" fill="#455468"/>
<path d="M51.5982 73.4293C57.1799 73.4293 61.7047 68.9178 61.7047 63.3525C61.7047 57.7873 57.1799 53.2758 51.5982 53.2758C46.0165 53.2758 41.4917 57.7873 41.4917 63.3525C41.4917 68.9178 46.0165 73.4293 51.5982 73.4293Z" fill="#455468"/>
<path d="M129.185 86.861C118.387 86.861 109.634 78.1334 109.634 67.3674C109.634 56.6014 118.387 47.8738 129.185 47.8738C139.982 47.8738 148.736 56.6014 148.736 67.3674C148.736 78.1334 139.982 86.861 129.185 86.861Z" fill="#455468"/>
<path d="M36.8878 69.0364C48.6158 69.0364 58.1233 59.557 58.1233 47.8634C58.1233 36.1699 48.6158 26.6904 36.8878 26.6904C25.1598 26.6904 15.6523 36.1699 15.6523 47.8634C15.6523 59.557 25.1598 69.0364 36.8878 69.0364Z" fill="#455468"/>
<path d="M54.9216 65.4199C60.9842 65.4199 65.8989 60.5197 65.8989 54.4749C65.8989 48.4301 60.9842 43.5299 54.9216 43.5299C48.859 43.5299 43.9443 48.4301 43.9443 54.4749C43.9443 60.5197 48.859 65.4199 54.9216 65.4199Z" fill="#455468"/>
<path d="M127.648 54.508C115.92 54.508 106.412 45.0285 106.412 33.335C106.412 21.6415 115.92 12.162 127.648 12.162C139.376 12.162 148.883 21.6415 148.883 33.335C148.883 45.0285 139.376 54.508 127.648 54.508Z" fill="#455468"/>
<path d="M48.2716 51.5744C59.9996 51.5744 69.507 42.0949 69.507 30.4014C69.507 18.7079 59.9996 9.22839 48.2716 9.22839C36.5436 9.22839 27.0361 18.7079 27.0361 30.4014C27.0361 42.0949 36.5436 51.5744 48.2716 51.5744Z" fill="#455468"/>
<path d="M69.8596 67.4509C75.9222 67.4509 80.8369 62.5507 80.8369 56.5059C80.8369 50.4612 75.9222 45.5609 69.8596 45.5609C63.797 45.5609 58.8823 50.4612 58.8823 56.5059C58.8823 62.5507 63.797 67.4509 69.8596 67.4509Z" fill="#455468"/>
<path d="M77.169 55.5032C88.8971 55.5032 98.4045 46.0237 98.4045 34.3302C98.4045 22.6367 88.8971 13.1572 77.169 13.1572C65.441 13.1572 55.9336 22.6367 55.9336 34.3302C55.9336 46.0237 65.441 55.5032 77.169 55.5032Z" fill="#455468"/>
<path d="M98.7626 59.3395C87.0346 59.3395 77.5271 49.8601 77.5271 38.1665C77.5271 26.473 87.0346 16.9935 98.7626 16.9935C110.491 16.9935 119.998 26.473 119.998 38.1665C119.998 49.8601 110.491 59.3395 98.7626 59.3395Z" fill="#455468"/>
<path d="M79.105 71.3517C84.6867 71.3517 89.2115 66.8401 89.2115 61.2749C89.2115 55.7096 84.6867 51.1981 79.105 51.1981C73.5234 51.1981 68.9985 55.7096 68.9985 61.2749C68.9985 66.8401 73.5234 71.3517 79.105 71.3517Z" fill="#455468"/>
<path d="M94.6832 64.6708C106.411 64.6708 115.919 55.1914 115.919 43.4978C115.919 31.8043 106.411 22.3248 94.6832 22.3248C82.9552 22.3248 73.4478 31.8043 73.4478 43.4978C73.4478 55.1914 82.9552 64.6708 94.6832 64.6708Z" fill="#455468"/>
<path d="M108.409 77.7518C96.6811 77.7518 87.1736 68.2723 87.1736 56.5788C87.1736 44.8852 96.6811 35.4058 108.409 35.4058C120.137 35.4058 129.645 44.8852 129.645 56.5788C129.645 68.2723 120.137 77.7518 108.409 77.7518Z" fill="#455468"/>
<path fill-rule="evenodd" clip-rule="evenodd" d="M74.6528 69.6625L70.8658 78.7795C70.448 79.7862 70.9272 80.9408 71.9368 81.3593L73.6155 82.052C75.6347 82.8871 77.9508 81.9298 78.7884 79.9163L81.0609 74.445C81.8982 72.4317 80.9381 70.1222 78.9189 69.2873L77.2402 68.5946C77.0001 68.4951 76.7425 68.4437 76.4824 68.4435C76.2223 68.4433 75.9647 68.4942 75.7244 68.5934C75.484 68.6926 75.2657 68.8381 75.0818 69.0215C74.8979 69.205 74.7522 69.4228 74.6528 69.6625ZM78.7906 79.9163L81.0632 74.4448C81.4808 73.4382 82.6391 72.9585 83.6506 73.377L100.109 80.1749C101.119 80.5913 101.6 81.746 101.18 82.7547L98.9077 88.2261C98.49 89.2328 97.3318 89.7125 96.3203 89.294L79.8596 82.4961C78.8499 82.0776 78.3709 80.9229 78.7906 79.9163Z" fill="#4A72FF"/>
<path fill-rule="evenodd" clip-rule="evenodd" d="M75.146 102.119L84.6484 89.4279L75.146 102.119Z" fill="white"/>
<path d="M75.146 102.119L84.6484 89.4279" stroke="#E8EDFF" stroke-width="1.88889" stroke-linecap="round" stroke-linejoin="round"/>
<path fill-rule="evenodd" clip-rule="evenodd" d="M98.9077 88.2241L101.18 82.7528L104.839 84.2627C105.848 84.6793 106.329 85.8339 105.91 86.8425L105.152 88.6663C104.734 89.6729 103.576 90.1526 102.564 89.7341L98.9077 88.2241Z" fill="#4A72FF"/>
<path d="M37.8085 89.3393C40.8464 91.1546 45.2048 89.4764 45.2048 89.4764C45.2048 89.4764 44.6349 84.8556 41.5951 83.0422C38.5572 81.2268 34.2007 82.903 34.2007 82.903C34.2007 82.903 34.7706 87.524 37.8085 89.3393Z" fill="#F2F5FF"/>
<path d="M151.133 82.8413C150.425 82.8413 149.851 82.2693 149.851 81.5637C149.851 80.858 150.425 80.286 151.133 80.286C151.84 80.286 152.414 80.858 152.414 81.5637C152.414 82.2693 151.84 82.8413 151.133 82.8413Z" fill="#E8EDFF"/>
<path d="M151.627 51.9739C149.805 52.875 147.387 51.7162 147.387 51.7162C147.387 51.7162 147.924 49.0969 149.747 48.197C151.569 47.2959 153.987 48.4533 153.987 48.4533C153.987 48.4533 153.449 51.0727 151.627 51.9739Z" fill="#F2F5FF"/>
<path d="M46.7971 44.5494H46.8137C46.9125 46.0694 47.9517 46.093 47.9517 46.093C47.9517 46.093 46.8056 46.1173 46.8056 47.8737C46.8056 46.1173 45.6596 46.093 45.6596 46.093C45.6596 46.093 46.6985 46.0694 46.7971 44.5494ZM60.5504 54.5224H60.5671C60.6657 56.0424 61.7051 56.066 61.7051 56.066C61.7051 56.066 60.5589 56.0903 60.5589 57.8467C60.5589 56.0903 59.413 56.066 59.413 56.066C59.413 56.066 60.4518 56.0424 60.5504 54.5224ZM70.6562 56.6001H70.6745C70.782 58.1201 71.9159 58.1437 71.9159 58.1437C71.9159 58.1437 70.6656 58.168 70.6656 59.9244C70.6656 58.168 69.4152 58.1437 69.4152 58.1437C69.4152 58.1437 70.5487 58.1201 70.6562 56.6001ZM66.4855 66.9886H66.5097C66.6533 69.0154 68.1649 69.0467 68.1649 69.0467C68.1649 69.0467 66.4978 69.0791 66.4978 71.421C66.4978 69.0791 64.8308 69.0467 64.8308 69.0467C64.8308 69.0467 66.342 69.0154 66.4855 66.9886ZM80.1384 58.8855H80.155C80.2538 60.3106 81.2931 60.3327 81.2931 60.3327C81.2931 60.3327 80.1469 60.3555 80.1469 62.0021C80.1469 60.3555 79.0009 60.3327 79.0009 60.3327C79.0009 60.3327 80.0398 60.3106 80.1384 58.8855ZM92.9532 55.5612H92.9715C93.079 56.9864 94.2129 57.0082 94.2129 57.0082C94.2129 57.0082 92.9626 57.0312 92.9626 58.6778C92.9626 57.0312 91.7122 57.0082 91.7122 57.0082C91.7122 57.0082 92.8457 56.9864 92.9532 55.5612ZM107.332 52.4447H107.35C107.457 53.8698 108.591 53.8917 108.591 53.8917C108.591 53.8917 107.341 53.9145 107.341 55.5612C107.341 53.9145 106.091 53.8917 106.091 53.8917C106.091 53.8917 107.224 53.8698 107.332 52.4447ZM99.8267 64.0532H99.851C99.9944 66.08 101.506 66.1113 101.506 66.1113C101.506 66.1113 99.8391 66.1437 99.8391 68.4856C99.8391 66.1437 98.1722 66.1113 98.1722 66.1113C98.1722 66.1113 99.6833 66.08 99.8267 64.0532ZM114.205 63.4566H114.229C114.373 65.4834 115.885 65.5145 115.885 65.5145C115.885 65.5145 114.218 65.547 114.218 67.889C114.218 65.547 112.551 65.5145 112.551 65.5145C112.551 65.5145 114.062 65.4834 114.205 63.4566ZM121.499 71.3519H121.523C121.666 73.3785 123.178 73.4098 123.178 73.4098C123.178 73.4098 121.511 73.4422 121.511 75.7843C121.511 73.4422 119.844 73.4098 119.844 73.4098C119.844 73.4098 121.355 73.3785 121.499 71.3519ZM138.794 64.0797H138.819C138.962 66.1066 140.474 66.1379 140.474 66.1379C140.474 66.1379 138.807 66.1702 138.807 68.5122C138.807 66.1702 137.14 66.1379 137.14 66.1379C137.14 66.1379 138.651 66.1066 138.794 64.0797ZM131.501 77.1427H131.525C131.669 79.1696 133.18 79.2008 133.18 79.2008C133.18 79.2008 131.514 79.2332 131.514 81.5752C131.514 79.2332 129.846 79.2008 129.846 79.2008C129.846 79.2008 131.358 79.1696 131.501 77.1427ZM97.1208 46.4194H97.1392C97.2466 47.8445 98.3805 47.8663 98.3805 47.8663C98.3805 47.8663 97.1303 47.8891 97.1303 49.5359C97.1303 47.8891 95.8798 47.8663 95.8798 47.8663C95.8798 47.8663 97.0134 47.8445 97.1208 46.4194ZM117.022 44.7571H117.039C117.138 46.1822 118.177 46.2043 118.177 46.2043C118.177 46.2043 117.031 46.2271 117.031 47.8737C117.031 46.2271 115.885 46.2043 115.885 46.2043C115.885 46.2043 116.924 46.1822 117.022 44.7571ZM129.417 41.4328H129.441C129.585 43.4597 131.097 43.4908 131.097 43.4908C131.097 43.4908 129.43 43.5234 129.43 45.8653C129.43 43.5234 127.763 43.4908 127.763 43.4908C127.763 43.4908 129.274 43.4597 129.417 41.4328ZM128.792 64.0797H128.816C128.96 66.1066 130.472 66.1379 130.472 66.1379C130.472 66.1379 128.805 66.1702 128.805 68.5122C128.805 66.1702 127.138 66.1379 127.138 66.1379C127.138 66.1379 128.649 66.1066 128.792 64.0797ZM121.503 23.9802H121.518C121.608 25.2469 122.553 25.2663 122.553 25.2663C122.553 25.2663 121.511 25.2867 121.511 26.7504C121.511 25.2867 120.469 25.2663 120.469 25.2663C120.469 25.2663 121.414 25.2469 121.503 23.9802ZM127.75 28.7322H127.774C127.918 30.7591 129.43 30.7903 129.43 30.7903C129.43 30.7903 127.763 30.8227 127.763 33.1646C127.763 30.8227 126.096 30.7903 126.096 30.7903C126.096 30.7903 127.607 30.7591 127.75 28.7322ZM137.131 23.8841H137.149C137.256 25.4044 138.39 25.4277 138.39 25.4277C138.39 25.4277 137.14 25.452 137.14 27.2086C137.14 25.452 135.89 25.4277 135.89 25.4277C135.89 25.4277 137.023 25.4044 137.131 23.8841ZM138.801 37.9434H138.813C138.885 38.9568 139.64 38.9725 139.64 38.9725C139.64 38.9725 138.807 38.9887 138.807 40.1595C138.807 38.9887 137.973 38.9725 137.973 38.9725C137.973 38.9725 138.729 38.9568 138.801 37.9434ZM23.1465 46.8348H23.1616C23.2513 48.1015 24.1961 48.1211 24.1961 48.1211C24.1961 48.1211 23.1542 48.1415 23.1542 49.605C23.1542 48.1415 22.1123 48.1211 22.1123 48.1211C22.1123 48.1211 23.0567 48.1015 23.1465 46.8348ZM29.3979 52.4181H29.4131C29.5028 53.6849 30.4476 53.7043 30.4476 53.7043C30.4476 53.7043 29.4057 53.7246 29.4057 55.1883C29.4057 53.7246 28.3638 53.7043 28.3638 53.7043C28.3638 53.7043 29.3082 53.6849 29.3979 52.4181ZM39.2969 50.5747H39.3104C39.3911 51.7149 40.2415 51.7324 40.2415 51.7324C40.2415 51.7324 39.3038 51.7507 39.3038 53.0679C39.3038 51.7507 38.3662 51.7324 38.3662 51.7324C38.3662 51.7324 39.2162 51.7149 39.2969 50.5747ZM50.7611 55.9767H50.7686C50.8136 56.7368 51.286 56.7485 51.286 56.7485C51.286 56.7485 50.7651 56.7607 50.7651 57.6389C50.7651 56.7607 50.2441 56.7485 50.2441 56.7485C50.2441 56.7485 50.7163 56.7368 50.7611 55.9767ZM96.0198 28.1356H96.0372C96.1398 29.5833 97.2194 29.6055 97.2194 29.6055C97.2194 29.6055 96.0287 29.6287 96.0287 31.3015C96.0287 29.6287 94.8379 29.6055 94.8379 29.6055C94.8379 29.6055 95.9174 29.5833 96.0198 28.1356ZM100.932 36.2979H100.949C101.052 37.7457 102.132 37.7679 102.132 37.7679C102.132 37.7679 100.941 37.791 100.941 39.464C100.941 37.791 99.75 37.7679 99.75 37.7679C99.75 37.7679 100.829 37.7457 100.932 36.2979ZM119.24 29.768H119.257C119.36 31.2158 120.44 31.238 120.44 31.238C120.44 31.238 119.249 31.2612 119.249 32.9339C119.249 31.2612 118.058 31.238 118.058 31.238C118.058 31.238 119.137 31.2158 119.24 29.768ZM108.374 37.9114H108.391C108.494 39.3591 109.574 39.3813 109.574 39.3813C109.574 39.3813 108.383 39.4047 108.383 41.0775C108.383 39.4047 107.192 39.3813 107.192 39.3813C107.192 39.3813 108.272 39.3591 108.374 37.9114ZM38.5683 19.8939H38.5804C38.6522 20.9073 39.4081 20.923 39.4081 20.923C39.4081 20.923 38.5745 20.9392 38.5745 22.1102C38.5745 20.9392 37.741 20.923 37.741 20.923C37.741 20.923 38.4965 20.9073 38.5683 19.8939ZM42.3161 31.4598H42.3342C42.4418 32.885 43.5758 32.9068 43.5758 32.9068C43.5758 32.9068 42.3255 32.9298 42.3255 34.5764C42.3255 32.9298 41.075 32.9068 41.075 32.9068C41.075 32.9068 42.2086 32.885 42.3161 31.4598ZM28.0442 34.0916H28.0578C28.1384 35.2316 28.9888 35.2493 28.9888 35.2493C28.9888 35.2493 28.0512 35.2676 28.0512 36.5848C28.0512 35.2676 27.1135 35.2493 27.1135 35.2493C27.1135 35.2493 27.9635 35.2316 28.0442 34.0916ZM38.1469 38.3163H38.168C38.2937 40.2164 39.6164 40.2456 39.6164 40.2456C39.6164 40.2456 38.1577 40.2761 38.1577 42.4717C38.1577 40.2761 36.6991 40.2456 36.6991 40.2456C36.6991 40.2456 38.0213 40.2164 38.1469 38.3163ZM87.5323 22.318H87.5565C87.6998 24.3448 89.2117 24.3759 89.2117 24.3759C89.2117 24.3759 87.5446 24.4085 87.5446 26.7504C87.5446 24.4085 85.8776 24.3759 85.8776 24.3759C85.8776 24.3759 87.3887 24.3448 87.5323 22.318ZM54.197 20.0751H54.2091C54.2808 21.0885 55.0368 21.1042 55.0368 21.1042C55.0368 21.1042 54.2032 21.1203 54.2032 22.2914C54.2032 21.1203 53.3696 21.1042 53.3696 21.1042C53.3696 21.1042 54.1254 21.0885 54.197 20.0751ZM50.2347 37.2775H50.2528C50.3605 38.7026 51.4944 38.7244 51.4944 38.7244C51.4944 38.7244 50.2439 38.7472 50.2439 40.394C50.2439 38.7472 48.9937 38.7244 48.9937 38.7244C48.9937 38.7244 50.127 38.7026 50.2347 37.2775Z" fill="white"/>
<path d="M51.3481 79.8703C49.9326 79.8703 48.7851 81.0145 48.7851 82.4258C48.7851 83.8372 49.9326 84.9813 51.3481 84.9813C52.7636 84.9813 53.9111 83.8372 53.9111 82.4258C53.9111 81.0145 52.7636 79.8703 51.3481 79.8703Z" fill="#4A72FF"/>
<path d="M33.289 76.9051C32.2667 76.9051 31.4379 76.0787 31.4379 75.0594C31.4379 74.0401 32.2667 73.2137 33.289 73.2137C34.3114 73.2137 35.1401 74.0401 35.1401 75.0594C35.1401 76.0787 34.3114 76.9051 33.289 76.9051Z" fill="#E8EDFF"/>
<path d="M28.9 44.2583C28.0655 44.2583 27.3889 43.5838 27.3889 42.7517C27.3889 41.9196 28.0655 41.245 28.9 41.245C29.7346 41.245 30.4111 41.9196 30.4111 42.7517C30.4111 43.5838 29.7346 44.2583 28.9 44.2583Z" fill="#4A72FF"/>
<path d="M75.6319 28.4471V25.7809M74.2948 27.1141H76.9691M89.2984 39.3205V36.6541M87.9613 37.9873H90.6355M56.3738 49.2935V46.6271M55.0366 47.9603H57.7109M37.2025 60.7209V58.0544M35.8653 59.3877H38.5396M60.1247 64.6685V62.0021M58.7876 63.3353H61.4618M118.055 58.2277V55.5613M116.718 56.8945H119.392M134.518 58.6432V55.9767M133.181 57.31H135.855M121.806 39.736V37.0698M120.469 38.403H123.143M83.6722 51.9946V49.3282M82.335 50.6614H85.0091M33.8684 31.0098V28.3433M32.5312 29.6766H35.2055M108.261 29.5553V26.889M106.924 28.2221H109.598" stroke="white" stroke-width="0.755556" stroke-linecap="round" stroke-linejoin="round"/>
<path d="M51.2405 66.0674C50.69 66.0674 50.2438 65.6224 50.2438 65.0735C50.2438 64.5247 50.69 64.0797 51.2405 64.0797C51.791 64.0797 52.2373 64.5247 52.2373 65.0735C52.2373 65.6224 51.791 66.0674 51.2405 66.0674Z" fill="#4A72FF"/>
<path d="M107.296 63.5742C106.745 63.5742 106.299 63.1293 106.299 62.5804C106.299 62.0315 106.745 61.5865 107.296 61.5865C107.846 61.5865 108.292 62.0315 108.292 62.5804C108.292 63.1293 107.846 63.5742 107.296 63.5742Z" fill="#4A72FF"/>
<path d="M44.5726 54.8478C44.0221 54.8478 43.5758 54.4028 43.5758 53.8539C43.5758 53.3051 44.0221 52.8601 44.5726 52.8601C45.1231 52.8601 45.5693 53.3051 45.5693 53.8539C45.5693 54.4028 45.1231 54.8478 44.5726 54.8478Z" fill="#4A72FF"/>
<path d="M126.05 53.6012C125.5 53.6012 125.053 53.1562 125.053 52.6074C125.053 52.0585 125.5 51.6135 126.05 51.6135C126.601 51.6135 127.047 52.0585 127.047 52.6074C127.047 53.1562 126.601 53.6012 126.05 53.6012Z" fill="#4A72FF"/>
<path d="M69.9954 52.1467C69.4449 52.1467 68.9987 51.7018 68.9987 51.1529C68.9987 50.604 69.4449 50.1591 69.9954 50.1591C70.5459 50.1591 70.9922 50.604 70.9922 51.1529C70.9922 51.7018 70.5459 52.1467 69.9954 52.1467Z" fill="#4A72FF"/>
<path d="M106.879 46.7448C106.329 46.7448 105.882 46.2998 105.882 45.7509C105.882 45.202 106.329 44.7571 106.879 44.7571C107.43 44.7571 107.876 45.202 107.876 45.7509C107.876 46.2998 107.43 46.7448 106.879 46.7448Z" fill="#4A72FF"/>
<path d="M38.8892 45.522C39.0903 46.2701 38.645 47.039 37.8947 47.2395C37.1444 47.4399 36.3732 46.996 36.1721 46.2479C35.9711 45.4998 36.4163 44.7308 37.1666 44.5304C37.917 44.3299 38.6882 44.7739 38.8892 45.522Z" fill="#E8EDFF"/>
<path d="M136.65 32.791C135.391 32.791 134.371 33.808 134.371 35.0625C134.371 36.317 135.391 37.334 136.65 37.334C137.908 37.334 138.928 36.317 138.928 35.0625C138.928 33.808 137.908 32.791 136.65 32.791Z" fill="#4A72FF"/>
<path d="M54.6958 29.3067C53.9177 29.3067 53.287 28.6779 53.287 27.9021C53.287 27.1264 53.9177 26.4976 54.6958 26.4976C55.4738 26.4976 56.1045 27.1264 56.1045 27.9021C56.1045 28.6779 55.4738 29.3067 54.6958 29.3067Z" fill="#E8EDFF"/>
<path fill-rule="evenodd" clip-rule="evenodd" d="M80.0048 38.4374C76.6619 39.5041 72.7843 38.8374 70.1101 36.171C66.7673 32.838 66.4998 27.5052 69.1741 23.7722C63.6918 24.3056 59.4131 28.8384 59.4131 34.4379C59.4131 40.3039 64.2267 45.1034 70.1101 45.1034C74.5225 45.1034 78.4002 42.3037 80.0048 38.4374Z" fill="white"/>
<path d="M128.161 20.5284C127.483 20.5284 126.933 19.9803 126.933 19.3042C126.933 18.6282 127.483 18.0801 128.161 18.0801C128.839 18.0801 129.389 18.6282 129.389 19.3042C129.389 19.9803 128.839 20.5284 128.161 20.5284Z" fill="#E8EDFF"/>
<path d="M73.8779 20.3032C72.8445 20.3032 72.0068 19.4679 72.0068 18.4375C72.0068 17.4072 72.8445 16.5719 73.8779 16.5719C74.9113 16.5719 75.749 17.4072 75.749 18.4375C75.749 19.4679 74.9113 20.3032 73.8779 20.3032Z" fill="#E8EDFF"/>
<path d="M112.263 12.2016C112.263 13.6142 111.114 14.7593 109.698 14.7593C108.281 14.7593 107.132 13.6142 107.132 12.2016C107.132 10.7889 108.281 9.6438 109.698 9.6438C111.114 9.6438 112.263 10.7889 112.263 12.2016Z" fill="#E8EDFF"/>
<path d="M154.924 60.1322H154.961C155.184 63.2819 157.534 63.3305 157.534 63.3305C157.534 63.3305 154.943 63.381 154.943 67.0205C154.943 63.381 152.352 63.3305 152.352 63.3305C152.352 63.3305 154.701 63.2819 154.924 60.1322ZM48.662 14.2148H48.6998C48.924 17.4451 51.2862 17.4949 51.2862 17.4949C51.2862 17.4949 48.6814 17.5465 48.6814 21.279C48.6814 17.5465 46.0767 17.4949 46.0767 17.4949C46.0767 17.4949 48.4378 17.4451 48.662 14.2148Z" fill="#E8EDFF"/>
</g>
<defs>
<clipPath id="clip0_2455_90221">
<rect width="170" height="113" fill="white"/>
</clipPath>
</defs>
</svg>
