<svg width="30" height="30" viewBox="0 0 30 30" fill="none" xmlns="http://www.w3.org/2000/svg">
<g clip-path="url(#clip0_255_993)">
<path d="M15 30C23.2843 30 30 23.2843 30 15C30 6.71573 23.2843 0 15 0C6.71573 0 0 6.71573 0 15C0 23.2843 6.71573 30 15 30Z" fill="#F0F0F0"/>
<path d="M3.10089 5.86769C1.92263 7.40068 1.03417 9.16757 0.516846 11.087H8.32024L3.10089 5.86769Z" fill="#0052B4"/>
<path d="M29.4835 11.087C28.9661 9.16763 28.0776 7.40074 26.8994 5.86775L21.6802 11.087H29.4835Z" fill="#0052B4"/>
<path d="M0.516846 18.9131C1.03423 20.8325 1.92269 22.5994 3.10089 24.1324L8.32007 18.9131H0.516846Z" fill="#0052B4"/>
<path d="M24.1324 3.10084C22.5994 1.92258 20.8326 1.03412 18.9131 0.516739V8.32008L24.1324 3.10084Z" fill="#0052B4"/>
<path d="M5.86792 26.8992C7.40091 28.0774 9.1678 28.9659 11.0872 29.4833V21.68L5.86792 26.8992Z" fill="#0052B4"/>
<path d="M11.0872 0.516739C9.16774 1.03412 7.40085 1.92258 5.86792 3.10078L11.0872 8.32002V0.516739Z" fill="#0052B4"/>
<path d="M18.9131 29.4833C20.8325 28.9659 22.5994 28.0774 24.1323 26.8992L18.9131 21.68V29.4833Z" fill="#0052B4"/>
<path d="M21.6802 18.9131L26.8994 24.1324C28.0776 22.5995 28.9661 20.8325 29.4835 18.9131H21.6802Z" fill="#0052B4"/>
<path d="M29.873 13.0435H16.9566H16.9566V0.126973C16.3161 0.0435938 15.6631 0 15 0C14.3368 0 13.6839 0.0435938 13.0435 0.126973V13.0434V13.0434H0.126973C0.0435938 13.6839 0 14.3369 0 15C0 15.6632 0.0435938 16.3161 0.126973 16.9565H13.0434H13.0434V29.873C13.6839 29.9564 14.3368 30 15 30C15.6631 30 16.3161 29.9565 16.9565 29.873V16.9566V16.9566H29.873C29.9564 16.3161 30 15.6632 30 15C30 14.3369 29.9564 13.6839 29.873 13.0435Z" fill="#D80027"/>
<path d="M18.9131 18.9131L25.6066 25.6066C25.9145 25.2989 26.2081 24.9772 26.4883 24.6437L20.7577 18.9131H18.9131V18.9131Z" fill="#D80027"/>
<path d="M11.0869 18.9131H11.0868L4.39331 25.6066C4.70104 25.9144 5.02278 26.2081 5.3563 26.4883L11.0869 20.7576V18.9131Z" fill="#D80027"/>
<path d="M11.087 11.087V11.0869L4.39344 4.39336C4.08559 4.70109 3.79191 5.02283 3.51172 5.35634L9.24236 11.087H11.087V11.087Z" fill="#D80027"/>
<path d="M18.9131 11.0871L25.6067 4.39342C25.2989 4.08557 24.9772 3.7919 24.6437 3.51176L18.9131 9.24241V11.0871Z" fill="#D80027"/>
</g>
<defs>
<clipPath id="clip0_255_993">
<rect width="30" height="30" fill="white"/>
</clipPath>
</defs>
</svg>
