<?xml version="1.0" encoding="UTF-8"?>
<svg version="1.1" xmlns="http://www.w3.org/2000/svg" width="500" height="500">
<path d="M0 0 C165 0 330 0 500 0 C500 165 500 330 500 500 C335 500 170 500 0 500 C0 335 0 170 0 0 Z " fill="#F7F7F7" transform="translate(0,0)"/>
<path d="M0 0 C12.71699779 1.97332724 23.54135567 8.48208883 33 17 C33.59941406 17.51820313 34.19882813 18.03640625 34.81640625 18.5703125 C44.79503433 27.7849157 51.79235464 40.37807684 58.07958984 52.26855469 C58.87045039 53.75629553 59.69208458 55.22760503 60.51953125 56.6953125 C63.13241252 61.71134544 63.17666323 64.91076751 61.578125 70.34765625 C61.38734375 70.89292969 61.1965625 71.43820313 61 72 C61.66 72 62.32 72 63 72 C64.53017361 70.40963415 64.53017361 70.40963415 66.125 68.375 C73.09717633 60.23839834 81.44278344 55.19646787 92 53 C93.73865185 52.94235467 95.47948312 52.9382474 97.21875 52.97265625 C98.22832764 52.98627197 99.23790527 52.9998877 100.27807617 53.01391602 C101.34131104 53.02994873 102.4045459 53.04598145 103.5 53.0625 C112.93496849 53.14048656 121.42268836 52.57776591 130.60546875 50.375 C133.41453089 49.93508162 135.26643702 50.66676524 137.93359375 51.5078125 C147.24647653 53.72600386 158.23671345 51.67885202 166.625 47.25 C167.40875 46.8375 168.1925 46.425 169 46 C169.66 46.33 170.32 46.66 171 47 C169.12762629 47.96345444 167.2519701 48.92053102 165.375 49.875 C164.33085937 50.40867188 163.28671875 50.94234375 162.2109375 51.4921875 C156.46836387 54.18882183 151.99633118 55.25975221 145.625 55.1875 C144.30886719 55.17332031 142.99273437 55.15914062 141.63671875 55.14453125 C138.83367637 55.03313214 136.19864591 54.81827874 133.4375 54.375 C130.05479034 53.76063016 130.05479034 53.76063016 127.19628906 54.95507812 C123.77267107 56.07431774 121.01443101 56.28378791 117.421875 56.34375 C116.17792969 56.37339844 114.93398438 56.40304688 113.65234375 56.43359375 C112.36457031 56.45550781 111.07679688 56.47742188 109.75 56.5 C93.819522 56.77438513 78.85266026 58.06991215 67.01171875 70.00390625 C62.43021513 75.48797589 60.06960546 81.21258424 58 88 C57.67 88.99 57.34 89.98 57 91 C56.01 91 55.02 91 54 91 C54.99 92.485 54.99 92.485 56 94 C56.42410156 93.29875 56.84820312 92.5975 57.28515625 91.875 C65.44994335 78.66778394 74.32187365 69.29508911 89.625 64.65234375 C98.8163228 62.8757802 108.21965554 63.39443291 117.29296875 65.54296875 C133.51030214 68.2809601 150.4046162 65.11910174 163.94140625 55.640625 C166.81723941 53.30536198 169.43198528 50.66678452 172 48 C169.26506227 56.29351387 161.90341559 62.22503025 154.5 66.4375 C152.68494923 67.32985783 150.85186429 68.18679003 149 69 C148.23429688 69.33902344 147.46859375 69.67804688 146.6796875 70.02734375 C138.02781657 73.20947255 127.66323857 72.86065459 118.6328125 71.48828125 C113.92252959 70.85517871 109.30801624 70.89308552 104.5625 70.9375 C103.17901367 70.94426758 103.17901367 70.94426758 101.76757812 70.95117188 C99.51164952 70.96286062 97.25586033 70.97924545 95 71 C96.28132812 71.09796875 97.56265625 71.1959375 98.8828125 71.296875 C108.17905133 72.07509346 116.73345117 73.19527072 125.65234375 75.98046875 C145.29440554 81.96247357 163.90281227 82.03045509 182.44140625 72.59765625 C185.02813382 70.98243247 186.94382164 69.2400249 189 67 C188.46632813 67.2165625 187.93265625 67.433125 187.3828125 67.65625 C180.18298296 70.34684374 173.7634625 70.87814125 166.25 69.125 C160.8636892 68.28712943 156.31105242 71.41269073 151.56640625 73.62890625 C146.60055299 75.53801304 142.23315604 75.57671516 137 75 C137 74.67 137 74.34 137 74 C137.90621094 73.84144531 138.81242188 73.68289062 139.74609375 73.51953125 C140.96425781 73.28621094 142.18242187 73.05289063 143.4375 72.8125 C144.63246094 72.59207031 145.82742188 72.37164062 147.05859375 72.14453125 C150.22757098 71.40438191 152.52099272 70.12827967 155.26171875 68.390625 C160.62887387 65.25821116 165.31644553 65.58296496 171.375 65.9375 C179.69023035 66.19510107 186.50614925 66.03401789 194 62 C194.74894531 61.62617188 195.49789063 61.25234375 196.26953125 60.8671875 C197.12611328 60.43792969 197.12611328 60.43792969 198 60 C194.40810268 65.66414578 190.63638242 71.24241172 185 75 C184.65471395 76.3302881 184.32198687 77.66388124 184 79 C176.81609823 87.58992536 164.7199909 91.68734805 154 93 C140.4644978 93.70314297 128.29109665 91.94480139 115.37890625 87.6484375 C101.22477562 83.79033293 84.6275567 84.61255493 71.75 91.6875 C67.53965489 94.35159754 64.51512312 97.43872325 61.47265625 101.36328125 C60 103 60 103 57 104 C57 104.66 57 105.32 57 106 C53.71286869 104.60243441 52.00511388 103.04355249 49.8125 100.25 C42.75657157 91.94269964 33.74622517 87.47190721 23 86 C8.63037504 85.1715959 -4.40667438 87.61341282 -18.25390625 91.3515625 C-32.4423689 94.7018965 -49.06599216 94.46333769 -62.078125 87.234375 C-70.04918033 82.1147541 -70.04918033 82.1147541 -73 79 C-73 77.68 -73 76.36 -73 75 C-74.57627495 73.2341629 -74.57627495 73.2341629 -76.6875 71.6875 C-80.6096078 68.46900302 -83.23247538 65.23777207 -86 61 C-82.28057199 61 -80.33421808 62.27598658 -77.1328125 64.02734375 C-73.17271637 65.83332165 -69.42373417 66.11482175 -65.12109375 65.88671875 C-47.18963734 65.21452582 -47.18963734 65.21452582 -38.5625 70.53125 C-34.60753012 72.79812298 -30.47685163 73.42553674 -26 74 C-26 74.33 -26 74.66 -26 75 C-34.51652251 75.55846049 -41.83681074 73.77545951 -49 69 C-50.85757555 69.20264461 -52.71477708 69.41679544 -54.5625 69.6953125 C-62.90118889 70.73764861 -70.23836946 70.29281296 -78 67 C-65.41655208 77.49221589 -51.74134692 81.16931945 -35.58642578 80.26025391 C-24.91126104 79.18608687 -14.14329885 76.43736602 -4 73 C-1.01505898 72.42050596 1.96754421 72.20122778 5 72 C5.8971875 71.93425781 6.794375 71.86851562 7.71875 71.80078125 C19.09429872 71.35737949 30.13199063 74.3611375 40 80 C26.11472947 70.3871204 12.52202451 69.8144826 -4 71 C-5.33660946 71.31994382 -6.67045103 71.6518787 -8 72 C-24.02798225 72.76834252 -38.37288498 71.3165196 -51.3125 60.75 C-56.33592735 56.03134126 -61.73847702 49.9463607 -63 43 C-61.64068359 43.72316406 -61.64068359 43.72316406 -60.25390625 44.4609375 C-47.07365491 51.35218094 -35.18870366 54.37211339 -20.3515625 50.2421875 C-18 50 -18 50 -15.26464844 50.9699707 C-11.78885244 52.06661917 -9.04857594 52.23958432 -5.4140625 52.23828125 C-4.16069092 52.25068848 -2.90731934 52.2630957 -1.6159668 52.27587891 C-0.29894775 52.28796387 1.01807129 52.30004883 2.375 52.3125 C19.3477899 52.63935437 32.56073429 54.60104033 45.0234375 67.015625 C48.52063123 70.75548115 50.85006579 73.88918131 52 79 C52.66 79 53.32 79 54 79 C48.51079881 50.86784388 33.12887861 22.09590967 9.25 5.625 C6.27408061 3.65207566 3.34484819 2.25139425 0 1 C0 0.67 0 0.34 0 0 Z " fill="#DEECE1" transform="translate(193,173)"/>
<path d="M0 0 C2.24597018 2.14150645 3.55798919 3.8150745 5.1875 6.375 C6.98959585 8.97483891 7.43876716 9.47598423 10.5625 10.5625 C14.89475812 9.1761774 16.25238254 6.57166444 18.83984375 2.94921875 C24.84754011 -4.81125159 34.41353904 -9.54127758 43.9609375 -11.11328125 C56.85917107 -12.64702536 71.14211765 -10.6686024 83.11865234 -5.35986328 C86.08758362 -4.29384709 88.26883683 -4.26393014 91.4140625 -4.390625 C92.51830566 -4.431875 93.62254883 -4.473125 94.76025391 -4.515625 C95.93249512 -4.57234375 97.10473633 -4.6290625 98.3125 -4.6875 C99.52728027 -4.7390625 100.74206055 -4.790625 101.99365234 -4.84375 C108.79826782 -5.16036925 115.54750569 -5.64711656 122.3125 -6.4375 C125.43624721 -6.78343107 128.56138519 -7.11370057 131.6875 -7.4375 C132.71246582 -7.54755371 133.73743164 -7.65760742 134.79345703 -7.77099609 C138.15158214 -8.10774265 141.50957434 -8.37262976 144.875 -8.625 C145.92703613 -8.74037109 146.97907227 -8.85574219 148.06298828 -8.97460938 C152.65162214 -9.26623175 155.47727797 -9.37648563 159.20166016 -6.48681641 C164.6875 -0.47828622 164.6875 -0.47828622 164.6875 2.5625 C147.96809559 3.46333938 131.24997845 3.92810541 114.51171875 4.31640625 C111.76161022 4.38174335 109.01151988 4.4478323 106.26142883 4.51390076 C99.82355139 4.66814322 93.3856177 4.81988548 86.94765836 4.97066683 C79.60264439 5.14281851 72.25769993 5.31785285 64.91275918 5.49309647 C49.83774655 5.85270968 34.76265285 6.20880964 19.6875 6.5625 C19.0275 8.2125 18.3675 9.8625 17.6875 11.5625 C13.0675 11.5625 8.4475 11.5625 3.6875 11.5625 C2.6975 9.0875 2.6975 9.0875 1.6875 6.5625 C-8.41662257 6.2692989 -18.52079343 5.97779042 -28.625 5.6875 C-29.77580929 5.6544363 -29.77580929 5.6544363 -30.94986725 5.62070465 C-57.36160782 4.86237898 -83.77417065 4.13822709 -110.1875 3.4375 C-111.02441502 3.4152964 -111.86133003 3.3930928 -112.72360611 3.37021637 C-122.91987341 3.09981182 -133.11617058 2.83055222 -143.3125 2.5625 C-141.21072236 -1.70519997 -139.1147636 -5.45792462 -135.3125 -8.4375 C-132.18313088 -9.25158226 -129.3152912 -8.91247593 -126.125 -8.5625 C-125.19953369 -8.49168213 -124.27406738 -8.42086426 -123.32055664 -8.34790039 C-119.9803316 -8.08214897 -116.64781965 -7.7589391 -113.3125 -7.4375 C-109.61721694 -7.10840216 -105.92069358 -6.79370326 -102.22422791 -6.47821045 C-98.41011699 -6.15165293 -94.59742741 -5.81621971 -90.78637695 -5.45556641 C-73.9318181 -3.55484341 -73.9318181 -3.55484341 -57.5625 -6.8125 C-56.28608879 -7.27471877 -55.00874708 -7.7343764 -53.73046875 -8.19140625 C-52.60253906 -8.60261719 -51.47460938 -9.01382812 -50.3125 -9.4375 C-32.6970294 -15.17478093 -14.4085007 -11.10884405 0 0 Z " fill="#2E9943" transform="translate(238.3125,271.4375)"/>
<path d="M0 0 C12.71699779 1.97332724 23.54135567 8.48208883 33 17 C33.59941406 17.51820313 34.19882813 18.03640625 34.81640625 18.5703125 C44.79503433 27.7849157 51.79235464 40.37807684 58.07958984 52.26855469 C58.87045039 53.75629553 59.69208458 55.22760503 60.51953125 56.6953125 C63.13241252 61.71134544 63.17666323 64.91076751 61.578125 70.34765625 C61.29195312 71.16556641 61.29195312 71.16556641 61 72 C61.66 72 62.32 72 63 72 C64.53017361 70.40963415 64.53017361 70.40963415 66.125 68.375 C73.09717633 60.23839834 81.44278344 55.19646787 92 53 C93.73865185 52.94235467 95.47948312 52.9382474 97.21875 52.97265625 C98.22832764 52.98627197 99.23790527 52.9998877 100.27807617 53.01391602 C101.34131104 53.02994873 102.4045459 53.04598145 103.5 53.0625 C112.93496849 53.14048656 121.42268836 52.57776591 130.60546875 50.375 C133.41453089 49.93508162 135.26643702 50.66676524 137.93359375 51.5078125 C147.24647653 53.72600386 158.23671345 51.67885202 166.625 47.25 C167.40875 46.8375 168.1925 46.425 169 46 C169.66 46.33 170.32 46.66 171 47 C169.12762629 47.96345444 167.2519701 48.92053102 165.375 49.875 C164.33085937 50.40867188 163.28671875 50.94234375 162.2109375 51.4921875 C156.46836387 54.18882183 151.99633118 55.25975221 145.625 55.1875 C144.30886719 55.17332031 142.99273437 55.15914062 141.63671875 55.14453125 C138.83367637 55.03313214 136.19864591 54.81827874 133.4375 54.375 C130.05479034 53.76063016 130.05479034 53.76063016 127.19628906 54.95507812 C123.77267107 56.07431774 121.01443101 56.28378791 117.421875 56.34375 C116.17792969 56.37339844 114.93398438 56.40304688 113.65234375 56.43359375 C112.36457031 56.45550781 111.07679688 56.47742188 109.75 56.5 C93.819522 56.77438513 78.85266026 58.06991215 67.01171875 70.00390625 C62.43021513 75.48797589 60.06960546 81.21258424 58 88 C57.505 89.485 57.505 89.485 57 91 C51.77926999 89.97632745 49.81184263 89.07739716 46.55859375 84.71484375 C39.87087669 77.35667886 27.42655565 71.37048894 17.40625 70.87060547 C15.96765625 70.86891357 15.96765625 70.86891357 14.5 70.8671875 C13.448125 70.86589844 12.39625 70.86460937 11.3125 70.86328125 C10.219375 70.86714844 9.12625 70.87101562 8 70.875 C6.906875 70.87113281 5.81375 70.86726563 4.6875 70.86328125 C3.1096875 70.86521484 3.1096875 70.86521484 1.5 70.8671875 C0.5409375 70.86831543 -0.418125 70.86944336 -1.40625 70.87060547 C-3.77318491 70.98868486 -5.72425471 71.39054706 -8 72 C-24.02798225 72.76834252 -38.37288498 71.3165196 -51.3125 60.75 C-56.33592735 56.03134126 -61.73847702 49.9463607 -63 43 C-62.09378906 43.48210937 -61.18757812 43.96421875 -60.25390625 44.4609375 C-47.07365491 51.35218094 -35.18870366 54.37211339 -20.3515625 50.2421875 C-18 50 -18 50 -15.26464844 50.9699707 C-11.78885244 52.06661917 -9.04857594 52.23958432 -5.4140625 52.23828125 C-4.16069092 52.25068848 -2.90731934 52.2630957 -1.6159668 52.27587891 C-0.29894775 52.28796387 1.01807129 52.30004883 2.375 52.3125 C19.3477899 52.63935437 32.56073429 54.60104033 45.0234375 67.015625 C48.52063123 70.75548115 50.85006579 73.88918131 52 79 C52.66 79 53.32 79 54 79 C48.51079881 50.86784388 33.12887861 22.09590967 9.25 5.625 C6.27408061 3.65207566 3.34484819 2.25139425 0 1 C0 0.67 0 0.34 0 0 Z " fill="#EFF4F0" transform="translate(193,173)"/>
<path d="M0 0 C1.38546784 0.37290849 2.76572752 0.76561202 4.140625 1.17578125 C4.81867188 1.36333984 5.49671875 1.55089844 6.1953125 1.74414062 C7.56372796 2.12266619 8.93030133 2.50791607 10.29492188 2.89990234 C13.64153621 3.83948069 17.01504332 4.65952297 20.390625 5.48828125 C20.390625 5.81828125 20.390625 6.14828125 20.390625 6.48828125 C15.70016417 7.63715931 11.06662657 7.74508105 6.265625 7.92578125 C-0.42142559 8.21232577 -7.02617091 8.70089956 -13.671875 9.48828125 C-49.15131813 13.42077841 -49.15131813 13.42077841 -66.609375 6.48828125 C-79.8238447 2.70190025 -94.14774566 3.36257466 -106.421875 9.80078125 C-112.01697714 13.19021925 -116.64534035 16.81038859 -120.171875 22.36328125 C-122.609375 25.48828125 -122.609375 25.48828125 -125.484375 26.48828125 C-129.79681812 25.10829945 -131.05973603 22.54106718 -133.640625 18.94140625 C-140.39053683 10.53080183 -151.16227401 6.14679728 -161.609375 4.48828125 C-174.24020874 3.60973979 -186.12442309 5.12393649 -197.796875 10.23828125 C-208.94059349 14.58634712 -224.97489197 10.79682547 -236.56787109 9.83422852 C-239.99662818 9.54976468 -243.42595941 9.27327858 -246.85546875 8.99804688 C-249.05212098 8.81947296 -251.24873695 8.64045228 -253.4453125 8.4609375 C-254.46209076 8.37860367 -255.47886902 8.29626984 -256.52645874 8.21144104 C-261.58661532 7.78908349 -266.59245178 7.27460682 -271.609375 6.48828125 C-267.64007457 3.84208096 -263.7965282 3.25748695 -259.171875 2.30078125 C-258.31271484 2.11064453 -257.45355469 1.92050781 -256.56835938 1.72460938 C-255.3221582 1.46260742 -255.3221582 1.46260742 -254.05078125 1.1953125 C-252.91684937 0.95518433 -252.91684937 0.95518433 -251.76000977 0.71020508 C-247.84777952 0.30650235 -245.61695473 1.48414685 -242.171875 3.36328125 C-223.80437624 12.64869575 -203.21537844 8.22807318 -184.35546875 3.13671875 C-169.78081517 -0.30480685 -154.90541317 0.39706089 -141.609375 7.48828125 C-136.19796564 10.8678975 -132.08617678 14.92939535 -128.0546875 19.8515625 C-126.68819346 21.60488176 -126.68819346 21.60488176 -124.609375 22.48828125 C-124.609375 21.82828125 -124.609375 21.16828125 -124.609375 20.48828125 C-123.03515625 18.9375 -123.03515625 18.9375 -120.921875 17.17578125 C-118.51195143 15.1408283 -116.32310136 13.17998657 -114.171875 10.86328125 C-104.37288184 1.78128759 -92.99246888 0.96519077 -80.2578125 1.23046875 C-70.86711368 1.61511053 -61.75297912 3.88986705 -52.85546875 6.83984375 C-38.27474336 11.04923578 -21.11927108 9.148423 -7.609375 2.48828125 C-7.01382812 1.9159375 -6.41828125 1.34359375 -5.8046875 0.75390625 C-3.609375 -0.51171875 -3.609375 -0.51171875 0 0 Z " fill="#E6EFE8" transform="translate(374.609375,256.51171875)"/>
<path d="M0 0 C2.76501836 1.0572129 5.3711414 2.19330281 8 3.5625 C12.35921268 5.65128941 16.08520774 6.14085502 20.87890625 5.88671875 C38.81036266 5.21452582 38.81036266 5.21452582 47.4375 10.53125 C51.39246988 12.79812298 55.52314837 13.42553674 60 14 C60 14.33 60 14.66 60 15 C51.48347749 15.55846049 44.16318926 13.77545951 37 9 C35.14242445 9.20264461 33.28522292 9.41679544 31.4375 9.6953125 C23.09881111 10.73764861 15.76163054 10.29281296 8 7 C20.58344792 17.49221589 34.25865308 21.16931945 50.41357422 20.26025391 C61.08873896 19.18608687 71.85670115 16.43736602 82 13 C84.98494102 12.42050596 87.96754421 12.20122778 91 12 C91.8971875 11.93425781 92.794375 11.86851562 93.71875 11.80078125 C107.83340157 11.25061338 120.71349073 15.54069043 131.23046875 25.0078125 C132.87621331 26.63056262 134.4632613 28.27444698 136 30 C135.67 30.66 135.34 31.32 135 32 C134.3709375 31.54109375 133.741875 31.0821875 133.09375 30.609375 C121.87592506 22.56768122 112.42372707 18.60011892 98.5 18.625 C97.64140381 18.62516113 96.78280762 18.62532227 95.89819336 18.62548828 C86.51513521 18.78960326 77.11026049 20.48238891 68.40234375 24.0703125 C56.3230793 28.74488963 37.61406485 27.81124221 25.609375 23.25390625 C15.2826321 18.29150435 4.93441577 10.54170643 0 0 Z " fill="#2F9A43" transform="translate(107,233)"/>
<path d="M0 0 C0.99 0.495 0.99 0.495 2 1 C-7.75272741 13.63704466 -18.64959852 23.17637595 -35 26 C-48.3506732 26.96811743 -60.26441776 26.09830155 -73 22 C-80.97290891 19.78169356 -88.56245096 18.72931311 -96.8125 18.6875 C-97.97700684 18.67928223 -97.97700684 18.67928223 -99.16503906 18.67089844 C-113.17736615 18.84403755 -125.04871653 24.10725349 -135 34 C-135 29.91268863 -133.52519877 29.06050451 -130.6875 26.1875 C-122.06433783 17.80896654 -112.03471055 12.85394811 -100 12 C-99.07445312 11.93425781 -98.14890625 11.86851562 -97.1953125 11.80078125 C-87.63357617 11.45503268 -79.16308591 13.6203925 -70 16 C-50.04822857 21.14550228 -32.57492611 22.27353771 -13.55859375 12.59765625 C-10.97186618 10.98243247 -9.05617836 9.2400249 -7 7 C-7.53367187 7.2165625 -8.06734375 7.433125 -8.6171875 7.65625 C-15.81701704 10.34684374 -22.2365375 10.87814125 -29.75 9.125 C-35.1363108 8.28712943 -39.68894758 11.41269073 -44.43359375 13.62890625 C-49.39944701 15.53801304 -53.76684396 15.57671516 -59 15 C-59 14.67 -59 14.34 -59 14 C-58.09378906 13.84144531 -57.18757813 13.68289062 -56.25390625 13.51953125 C-55.03574219 13.28621094 -53.81757813 13.05289063 -52.5625 12.8125 C-51.36753906 12.59207031 -50.17257812 12.37164062 -48.94140625 12.14453125 C-45.77242902 11.40438191 -43.47900728 10.12827967 -40.73828125 8.390625 C-35.37115108 5.25822572 -30.68354971 5.58290679 -24.625 5.9375 C-16.49320204 6.18977915 -9.22417371 6.31246971 -2 2 C-1.34 1.34 -0.68 0.68 0 0 Z " fill="#2E9942" transform="translate(389,233)"/>
<path d="M0 0 C12.71699779 1.97332724 23.54135567 8.48208883 33 17 C33.59941406 17.51820313 34.19882813 18.03640625 34.81640625 18.5703125 C44.79715634 27.78687523 51.7905804 40.37859788 58.07519531 52.27294922 C58.86816427 53.75379992 59.70709495 55.20987854 60.5546875 56.66015625 C62.84433211 60.90273303 63.26372109 63.37462759 61.9375 68.0625 C61.32040483 69.71932274 60.67461678 71.36575392 60 73 C59.43556443 74.54095907 58.87289071 76.08256536 58.3125 77.625 C57.879375 78.73875 57.44625 79.8525 57 81 C55 80 55 80 54.16552734 77.93725586 C53.8917627 77.03885986 53.61799805 76.14046387 53.3359375 75.21484375 C53.02261475 74.21678711 52.70929199 73.21873047 52.38647461 72.19042969 C52.05268799 71.11696289 51.71890137 70.04349609 51.375 68.9375 C48.08129605 58.71258561 44.20276003 49.37977266 39 40 C38.44828125 38.94941406 37.8965625 37.89882812 37.328125 36.81640625 C28.83081251 21.25823171 16.43615979 8.09500173 0 1 C0 0.67 0 0.34 0 0 Z " fill="#45BA41" transform="translate(193,173)"/>
<path d="M0 0 C4 1.33333333 8 2.66666667 12 4 C13.89389011 4.09539595 15.79121506 4.12985604 17.6875 4.125 C18.76128906 4.12371094 19.83507812 4.12242187 20.94140625 4.12109375 C23.47499383 4.02078569 25.66249966 3.71625774 28.125 3.1875 C32.97212705 2.95296159 35.37927574 4.475985 39.53515625 6.78125 C43.99421593 8.98604655 48.21421393 9.59526202 53 8 C53 7.34 53 6.68 53 6 C53.58491211 6.00523682 54.16982422 6.01047363 54.77246094 6.01586914 C57.43162963 6.03670158 60.09078111 6.04968007 62.75 6.0625 C63.67039063 6.07087891 64.59078125 6.07925781 65.5390625 6.08789062 C66.42851562 6.09111328 67.31796875 6.09433594 68.234375 6.09765625 C69.45979004 6.10551147 69.45979004 6.10551147 70.70996094 6.11352539 C72.95473356 6.00224402 74.82790461 5.54485397 77 5 C93.82233378 3.79293428 107.47271885 5.04884697 122 14 C121.34 14.66 120.68 15.32 120 16 C119.25169922 15.51080078 119.25169922 15.51080078 118.48828125 15.01171875 C104.41106767 6.44407889 88.68057169 6.71801988 73 10 C69.42364165 10.96104784 65.87618147 11.99965167 62.32421875 13.046875 C43.26750445 18.51084479 26.87876544 16.71254192 9.26171875 7.9140625 C5.77136936 5.86583351 2.99523981 3.70976309 0 1 C0 0.67 0 0.34 0 0 Z " fill="#ECF2ED" transform="translate(112,238)"/>
<path d="M0 0 C0.55429688 0.2784375 1.10859375 0.556875 1.6796875 0.84375 C2.82824219 1.41609375 2.82824219 1.41609375 4 2 C5.21042969 2.60328125 5.21042969 2.60328125 6.4453125 3.21875 C23.8036038 11.51834118 40.79372176 9.81459526 58.7265625 4.13671875 C60.11229261 3.64541444 61.4977317 3.15328813 62.8828125 2.66015625 C77.78176689 -1.98545868 93.79265706 -1.36807143 107.75 5.6875 C114.46880354 9.58091072 119.45466504 14.76402216 124 21 C123.67 21.66 123.34 22.32 123 23 C122.5875 22.55269531 122.175 22.10539062 121.75 21.64453125 C112.99776787 12.48203824 103.19978859 7.53036475 90.4765625 6.796875 C77.36312246 6.63727938 65.40704657 8.93365651 52.74609375 12.3515625 C38.44195679 15.72921077 21.91658419 15.38585898 8.7890625 8.1796875 C5.61447337 6.08639947 2.66927852 3.710986 0 1 C0 0.67 0 0.34 0 0 Z " fill="#309A44" transform="translate(122,252)"/>
<path d="M0 0 C9.5690974 2.71433889 18.06360868 4.53619506 28.1171875 3.62109375 C29.54417969 3.49541016 29.54417969 3.49541016 31 3.3671875 C37.5627061 2.479072 42.80650908 0.04196688 48.5859375 -3.13671875 C51.1171875 -4.37890625 51.1171875 -4.37890625 54.1171875 -4.37890625 C41.37331506 7.04777007 26.87400632 9.33704014 10.29199219 8.76611328 C2.1620343 8.2239944 -5.80468158 5.8313484 -13.50390625 3.26953125 C-26.30467773 -0.2196774 -42.63416024 -0.14004676 -54.5234375 5.98046875 C-59.52364675 8.88478191 -64.23545065 12.18608717 -68.8828125 15.62109375 C-65.07380613 6.61798779 -57.12557894 1.29934769 -48.37890625 -2.453125 C-31.92075949 -8.16195763 -16.1840469 -4.61894119 0 0 Z " fill="#2F9943" transform="translate(321.8828125,257.37890625)"/>
<path d="M0 0 C0 4.93060535 -3.69634374 7.58622186 -7 11 C-11.51626287 15.44537982 -16.13906285 18.58477865 -22 21 C-22.70382812 21.30035156 -23.40765625 21.60070312 -24.1328125 21.91015625 C-32.91049789 25.10880432 -43.12229395 24.88654236 -52.2890625 23.50390625 C-69.64476882 21.14718402 -85.64628569 22.10664574 -100.44140625 31.984375 C-104.51032584 35.18981394 -107.79443208 38.94941131 -111 43 C-111.33 42.34 -111.66 41.68 -112 41 C-103.58193259 28.2082998 -94.66565029 21.23977277 -80.15625 16.3828125 C-76.74460281 15.77712151 -73.32880686 15.80948621 -69.875 15.8125 C-69.10800781 15.81185547 -68.34101563 15.81121094 -67.55078125 15.81054688 C-63.56729883 15.8476182 -59.8882964 16.05147095 -56 17 C-39.86118134 20.82162827 -23.06999474 17.36594282 -9 9 C-5.36933447 6.50302055 -2.45593495 3.68390243 0 0 Z " fill="#339B46" transform="translate(364,221)"/>
<path d="M0 0 C0.62261719 0.52787109 0.62261719 0.52787109 1.2578125 1.06640625 C15.91402179 12.80977059 30.62466631 16.09829581 49 15 C52.03319696 14.58410065 55.00920557 14.0339843 58.015625 13.4609375 C71.71206842 11.34551823 84.8147819 13.24517352 96.14453125 21.5 C98.63963347 23.51709316 100.84936202 25.61686062 103 28 C103.52722656 28.56976563 104.05445313 29.13953125 104.59765625 29.7265625 C109.24450046 34.88972273 109.24450046 34.88972273 110 39 C109.401875 38.34 108.80375 37.68 108.1875 37 C98.68633138 27.60558608 86.16206916 19.88325512 72.5 19.8671875 C71.448125 19.86589844 70.39625 19.86460937 69.3125 19.86328125 C68.219375 19.86714844 67.12625 19.87101562 66 19.875 C64.906875 19.87113281 63.81375 19.86726563 62.6875 19.86328125 C61.1096875 19.86521484 61.1096875 19.86521484 59.5 19.8671875 C58.5409375 19.86831543 57.581875 19.86944336 56.59375 19.87060547 C54.22681509 19.98868486 52.27574529 20.39054706 50 21 C33.82673996 21.77530678 19.30046789 20.3297254 6.4375 9.375 C3.96859886 7.11316798 1.86958431 4.78448726 0 2 C0 1.34 0 0.68 0 0 Z " fill="#339C47" transform="translate(135,224)"/>
<path d="M0 0 C14.19642857 -0.53571429 14.19642857 -0.53571429 17.75 1.75 C20.97109995 4.97109995 22.30570742 7.75471998 22.5 12.3125 C22.42195655 17.03412879 20.70409428 19.35224944 17.5078125 22.6875 C12.89980384 26.69861635 5.69203167 25.05174574 0 25 C0 16.75 0 8.5 0 0 Z " fill="#2F9A44" transform="translate(169,293)"/>
<path d="M0 0 C-0.88300781 0.40089844 -1.76601563 0.80179688 -2.67578125 1.21484375 C-26.18586576 12.20926563 -40.34097493 32.46248101 -50 56 C-52.87771974 53.26778294 -54.51230375 50.71924063 -56 47 C-54.75083714 34.34181638 -40.93611729 21.04269914 -31.79296875 13.1328125 C-24.2051676 7.33849163 -9.7090133 -3.23633777 0 0 Z " fill="#2E9942" transform="translate(308,173)"/>
<path d="M0 0 C5.33966695 1.06793339 6.25072142 1.78807792 9.8125 5.5625 C10.60269531 6.38878906 11.39289063 7.21507812 12.20703125 8.06640625 C12.79871094 8.70449219 13.39039063 9.34257812 14 10 C14.33 6.7 14.66 3.4 15 0 C17.31 0 19.62 0 22 0 C22 8.25 22 16.5 22 25 C17.34021814 23.83505453 16.03113315 22.34815157 12.75 18.9375 C11.85796875 18.01839844 10.9659375 17.09929687 10.046875 16.15234375 C9.37140625 15.44207031 8.6959375 14.73179687 8 14 C7.67 17.63 7.34 21.26 7 25 C4.69 25 2.38 25 0 25 C0 16.75 0 8.5 0 0 Z " fill="#47BB43" transform="translate(279,293)"/>
<path d="M0 0 C2.6875 1.6875 2.6875 1.6875 4.6875 4.6875 C4.6875 5.6775 4.6875 6.6675 4.6875 7.6875 C1.8125 7.8125 1.8125 7.8125 -1.3125 7.6875 C-1.9725 7.0275 -2.6325 6.3675 -3.3125 5.6875 C-6.87842619 5.85167032 -6.87842619 5.85167032 -10.3125 6.6875 C-11.81912097 9.70074195 -11.49020373 12.37036377 -11.3125 15.6875 C-9.35616025 18.09871859 -9.35616025 18.09871859 -5.6875 17.8125 C-4.57375 17.77125 -3.46 17.73 -2.3125 17.6875 C-1.9825 17.0275 -1.6525 16.3675 -1.3125 15.6875 C-2.9625 15.6875 -4.6125 15.6875 -6.3125 15.6875 C-6.3125 14.0375 -6.3125 12.3875 -6.3125 10.6875 C-2.3525 10.6875 1.6075 10.6875 5.6875 10.6875 C5.99237805 18.61432927 5.99237805 18.61432927 3.6875 21.6875 C-0.19867696 25.08790484 -3.99312869 25.14521161 -8.94140625 24.96875 C-12.14348709 24.58893151 -13.91909048 23.86332683 -16.3125 21.6875 C-19.34467022 17.19152346 -20.26388112 12.98352155 -19.3125 7.6875 C-15.09093739 -0.59927105 -8.85133294 -3.50713192 0 0 Z " fill="#47BB43" transform="translate(248.3125,293.3125)"/>
<path d="M0 0 C2.875 1.1875 2.875 1.1875 5 3 C5.8125 5.6875 5.8125 5.6875 6 8 C4.00045254 8.04254356 1.99958364 8.04080783 0 8 C-0.33 7.67 -0.66 7.34 -1 7 C-2.66617115 6.95936168 -4.33388095 6.957279 -6 7 C-6.33 7.99 -6.66 8.98 -7 10 C-6.40832031 10.02578125 -5.81664062 10.0515625 -5.20703125 10.078125 C-1.22912916 10.36365141 1.52548371 10.73853184 5.0625 12.6875 C7 15 7 15 7.625 17.9375 C6.74750813 22.23721018 5.66656378 23.55562415 2 26 C-2.98932191 26.84877518 -7.37188019 27.06017104 -11.6875 24.25 C-13 22 -13 22 -13 18 C-8.18061476 17.76490804 -4.53701494 18.54815522 0 20 C-0.33 19.01 -0.66 18.02 -1 17 C-3.00992204 16.30400689 -3.00992204 16.30400689 -5.375 16 C-8.90024558 15.44882154 -10.80454023 14.90433863 -13 12 C-13.5625 8.625 -13.5625 8.625 -13 5 C-8.98415633 0.3964719 -6.25340518 -0.90958621 0 0 Z " fill="#309A44" transform="translate(360,292)"/>
<path d="M0 0 C5.28 0 10.56 0 16 0 C16 1.65 16 3.3 16 5 C13.03 5 10.06 5 7 5 C7 6.32 7 7.64 7 9 C9.64 9 12.28 9 15 9 C15 10.98 15 12.96 15 15 C12.36 15 9.72 15 7 15 C7 16.32 7 17.64 7 19 C9.97 19 12.94 19 16 19 C16.38218767 20.65614657 16.71395102 22.32457024 17 24 C15.24440058 25.75559942 12.96417558 25.13221919 10.62890625 25.13671875 C9.92636719 25.13285156 9.22382813 25.12898438 8.5 25.125 C7.79746094 25.12886719 7.09492188 25.13273437 6.37109375 25.13671875 C1.12661378 25.12661378 1.12661378 25.12661378 0 24 C-0.08726223 22.21928754 -0.10699041 20.4351686 -0.09765625 18.65234375 C-0.09443359 17.57275391 -0.09121094 16.49316406 -0.08789062 15.38085938 C-0.07951172 14.24455078 -0.07113281 13.10824219 -0.0625 11.9375 C-0.05798828 10.79732422 -0.05347656 9.65714844 -0.04882812 8.48242188 C-0.0369976 5.65492582 -0.0190615 2.82745655 0 0 Z " fill="#46BB42" transform="translate(258,293)"/>
<path d="M0 0 C5.28 0 10.56 0 16 0 C16 1.65 16 3.3 16 5 C13.03 5 10.06 5 7 5 C7 6.32 7 7.64 7 9 C9.64 9 12.28 9 15 9 C15 10.98 15 12.96 15 15 C12.36 15 9.72 15 7 15 C7 16.32 7 17.64 7 19 C9.97 19 12.94 19 16 19 C16.38218767 20.65614657 16.71395102 22.32457024 17 24 C15.24440058 25.75559942 12.96417558 25.13221919 10.62890625 25.13671875 C9.92636719 25.13285156 9.22382813 25.12898438 8.5 25.125 C7.79746094 25.12886719 7.09492188 25.13273437 6.37109375 25.13671875 C1.12661378 25.12661378 1.12661378 25.12661378 0 24 C-0.08726223 22.21928754 -0.10699041 20.4351686 -0.09765625 18.65234375 C-0.09443359 17.57275391 -0.09121094 16.49316406 -0.08789062 15.38085938 C-0.07951172 14.24455078 -0.07113281 13.10824219 -0.0625 11.9375 C-0.05798828 10.79732422 -0.05347656 9.65714844 -0.04882812 8.48242188 C-0.0369976 5.65492582 -0.0190615 2.82745655 0 0 Z " fill="#2E9942" transform="translate(148,293)"/>
<path d="M0 0 C1.98 0 3.96 0 6 0 C6.33 5.94 6.66 11.88 7 18 C8.98 18 10.96 18 13 18 C13.495 9.09 13.495 9.09 14 0 C15.98 0 17.96 0 20 0 C20.14584064 3.22868746 20.23424106 6.45652365 20.3125 9.6875 C20.35439453 10.59951172 20.39628906 11.51152344 20.43945312 12.45117188 C20.52266257 17.02769132 20.50821315 19.28490362 17.79296875 23.10546875 C14.8615118 25.09393955 13.49506275 25.67961036 10 25.625 C9.175 25.63789063 8.35 25.65078125 7.5 25.6640625 C3.67167229 24.64716295 2.29438573 23.22838346 0 20 C-0.59551037 16.53790242 -0.47325764 13.18707025 -0.3125 9.6875 C-0.28994141 8.75615234 -0.26738281 7.82480469 -0.24414062 6.86523438 C-0.18542078 4.5751604 -0.10336858 2.28842125 0 0 Z " fill="#2E9942" transform="translate(323,293)"/>
<path d="M0 0 C1.98 0 3.96 0 6 0 C6.33 5.94 6.66 11.88 7 18 C8.98 18 10.96 18 13 18 C13.495 9.09 13.495 9.09 14 0 C15.98 0 17.96 0 20 0 C20.14584064 3.22868746 20.23424106 6.45652365 20.3125 9.6875 C20.35439453 10.59951172 20.39628906 11.51152344 20.43945312 12.45117188 C20.52263951 17.02642308 20.5097309 19.2836702 17.79296875 23.1015625 C14.87664008 25.08385024 13.48230746 25.70382332 10 25.6875 C9.175 25.71199219 8.35 25.73648437 7.5 25.76171875 C4.5000293 24.84766518 2.8515556 23.42269532 0.95947266 20.93188477 C-0.91149783 17.16471188 -0.51364573 13.23456195 -0.3125 9.125 C-0.28994141 8.24585938 -0.26738281 7.36671875 -0.24414062 6.4609375 C-0.18559748 4.30654993 -0.09592783 2.1530469 0 0 Z " fill="#2D9942" transform="translate(195,293)"/>
<path d="M0 0 C4.04650076 1.31511275 8.01651185 2.75498321 11.97265625 4.31640625 C20.61810385 7.23153791 29.96354272 6.65963244 38.6484375 4.2421875 C41 4 41 4 43.73535156 4.9699707 C47.21114756 6.06661917 49.95142406 6.23958432 53.5859375 6.23828125 C54.83930908 6.25068848 56.09268066 6.2630957 57.3840332 6.27587891 C58.70105225 6.28796387 60.01807129 6.30004883 61.375 6.3125 C78.25609223 6.63758849 91.66539949 8.52327336 103.98828125 21.015625 C107.37235299 24.68695748 110.2383254 28.2654995 112 33 C111.67 33.99 111.34 34.98 111 36 C110.64808594 35.35933594 110.29617187 34.71867187 109.93359375 34.05859375 C103.64490176 23.04106809 96.48565079 16.35573968 84.14624023 12.40673828 C76.1833433 10.32604705 67.94963161 10.59562832 59.77563477 10.46826172 C57.79428963 10.43431902 55.81314682 10.38915673 53.83203125 10.34375 C52.66389893 10.32505859 51.4957666 10.30636719 50.29223633 10.28710938 C46.9081886 9.99199331 44.18755348 9.13180632 41 8 C38.12841282 7.96987714 38.12841282 7.96987714 35.25 8.375 C21.56539757 9.76035481 11.88088607 8.26054149 0 1 C0 0.67 0 0.34 0 0 Z " fill="#359C48" transform="translate(134,219)"/>
<path d="M0 0 C1.38546784 0.37290849 2.76572752 0.76561202 4.140625 1.17578125 C4.81867188 1.36333984 5.49671875 1.55089844 6.1953125 1.74414062 C7.56372796 2.12266619 8.93030133 2.50791607 10.29492188 2.89990234 C13.64153621 3.83948069 17.01504332 4.65952297 20.390625 5.48828125 C20.390625 5.81828125 20.390625 6.14828125 20.390625 6.48828125 C15.70016417 7.63715931 11.06662657 7.74508105 6.265625 7.92578125 C-0.42142559 8.21232577 -7.02617091 8.70089956 -13.671875 9.48828125 C-49.80964464 13.4937465 -49.80964464 13.4937465 -66.609375 6.48828125 C-67.93436996 6.1232097 -69.26469766 5.77241455 -70.609375 5.48828125 C-70.609375 4.49828125 -70.609375 3.50828125 -70.609375 2.48828125 C-69.90554688 2.67003906 -69.20171875 2.85179687 -68.4765625 3.0390625 C-65.19218064 3.87516493 -61.90091758 4.68085313 -58.609375 5.48828125 C-56.96775391 5.91753906 -56.96775391 5.91753906 -55.29296875 6.35546875 C-39.2435384 10.26089213 -22.62424314 9.89034782 -7.609375 2.48828125 C-7.01382813 1.9159375 -6.41828125 1.34359375 -5.8046875 0.75390625 C-3.609375 -0.51171875 -3.609375 -0.51171875 0 0 Z " fill="#E1EDE3" transform="translate(374.609375,256.51171875)"/>
<path d="M0 0 C0.99 0.495 0.99 0.495 2 1 C0.12762629 1.96345444 -1.7480299 2.92053102 -3.625 3.875 C-4.66914063 4.40867188 -5.71328125 4.94234375 -6.7890625 5.4921875 C-12.53163613 8.18882183 -17.00366882 9.25975221 -23.375 9.1875 C-25.34919922 9.16623047 -25.34919922 9.16623047 -27.36328125 9.14453125 C-30.16632363 9.03313214 -32.80135409 8.81827874 -35.5625 8.375 C-38.94520966 7.76063016 -38.94520966 7.76063016 -41.80371094 8.95507812 C-45.22732893 10.07431774 -47.98556899 10.28378791 -51.578125 10.34375 C-52.82207031 10.37339844 -54.06601562 10.40304688 -55.34765625 10.43359375 C-56.63542969 10.45550781 -57.92320312 10.47742188 -59.25 10.5 C-74.51652415 10.76294925 -87.76247006 11.96781998 -100 22 C-102.56440811 24.85154261 -104.79890397 27.86372328 -107 31 C-107.99632312 32.33608308 -108.99519307 33.67028544 -110 35 C-108.81280915 26.5264253 -101.79541423 20.17859112 -95.5390625 14.79296875 C-88.6125589 9.9017916 -80.26856423 6.80474718 -71.78125 6.97265625 C-70.77167236 6.98627197 -69.76209473 6.9998877 -68.72192383 7.01391602 C-67.65868896 7.02994873 -66.5954541 7.04598145 -65.5 7.0625 C-56.06503151 7.14048656 -47.57731164 6.57776591 -38.39453125 4.375 C-35.58546911 3.93508162 -33.73356298 4.66676524 -31.06640625 5.5078125 C-21.75352347 7.72600386 -10.76328655 5.67885202 -2.375 1.25 C-1.59125 0.8375 -0.8075 0.425 0 0 Z " fill="#3FA152" transform="translate(362,219)"/>
<path d="M0 0 C3.96 0 7.92 0 12 0 C12 1.65 12 3.3 12 5 C11.01 5.495 11.01 5.495 10 6 C9.53045739 9.04581269 9.53045739 9.04581269 9.375 12.5625 C9.30023438 13.76003906 9.22546875 14.95757812 9.1484375 16.19140625 C9.09945313 17.11824219 9.05046875 18.04507812 9 19 C9.99 19 10.98 19 12 19 C12 20.98 12 22.96 12 25 C8.04 25 4.08 25 0 25 C0 23.02 0 21.04 0 19 C0.99 19 1.98 19 3 19 C2.88655624 16.8535247 2.75893655 14.70779408 2.625 12.5625 C2.55539062 11.36753906 2.48578125 10.17257812 2.4140625 8.94140625 C2.27742188 7.97074219 2.14078125 7.00007813 2 6 C1.34 5.67 0.68 5.34 0 5 C0 3.35 0 1.7 0 0 Z " fill="#29973E" transform="translate(306,293)"/>
<path d="M0 0 C0.99 0.99 0.99 0.99 2 2 C-6.60854931 7.60209283 -15.58421861 12.29384533 -26 13 C-26.94746094 13.07476562 -27.89492188 13.14953125 -28.87109375 13.2265625 C-38.74293785 13.66023889 -47.15383341 11.36625362 -56.56542969 8.68017578 C-71.52937669 4.4995143 -84.67904034 2.22953394 -100.02734375 6.24609375 C-103.00522337 7.00132472 -105.96473641 7.53408025 -109 8 C-106.98277148 5.98277148 -105.86187165 5.40429745 -103.25 4.4375 C-102.59515625 4.18871094 -101.9403125 3.93992188 -101.265625 3.68359375 C-87.02515899 -0.61309858 -70.4606398 1.63377335 -56.61328125 6.08984375 C-40.12716551 11.18621176 -21.86099196 11.38527449 -6.22265625 3.62109375 C-4.10180632 2.47407014 -2.03895488 1.28554261 0 0 Z " fill="#C3DFC9" transform="translate(376,249)"/>
<path d="M0 0 C0 0.33 0 0.66 0 1 C-10.59849809 1.20674393 -20.90530629 0.61521748 -31.4375 -0.5 C-32.86256032 -0.64521873 -34.28769058 -0.78975276 -35.71289062 -0.93359375 C-39.14276475 -1.2812218 -42.57161605 -1.63793492 -46 -2 C-36.01898535 -11.98101465 -10.5203241 -5.63588791 0 0 Z " fill="#EBF2EC" transform="translate(233,272)"/>
<path d="M0 0 C1.25586914 0.00797607 1.25586914 0.00797607 2.53710938 0.01611328 C16.66180123 0.23286749 16.66180123 0.23286749 22.6875 4.25 C17.92327939 4.68409054 13.15848544 5.11100759 8.39306641 5.53173828 C6.77733699 5.67535153 5.16177025 5.8208089 3.54638672 5.96826172 C-5.76187268 6.81656558 -14.95323479 7.49884309 -24.3125 7.25 C-22.40924873 3.44349745 -16.99995358 2.48453299 -13.15234375 1.171875 C-8.66401168 0.09431003 -4.59371698 -0.05224299 0 0 Z " fill="#ECF2EE" transform="translate(288.3125,265.75)"/>
<path d="M0 0 C6.11189238 3.22113247 12.95621783 4.5550377 19.625 6.1875 C15.39865073 7.40970135 11.50073545 7.03572469 7.16796875 6.6640625 C6.34678055 6.59843109 5.52559235 6.53279968 4.67951965 6.46517944 C2.94356771 6.32522401 1.20786602 6.18213412 -0.52758789 6.03613281 C-3.16697684 5.81422549 -5.80697879 5.60155225 -8.44726562 5.390625 C-10.13806508 5.25314729 -11.82882185 5.11514337 -13.51953125 4.9765625 C-14.30205765 4.91296539 -15.08458405 4.84936829 -15.89082336 4.78384399 C-20.4160294 4.40108009 -24.88561455 3.87416878 -29.375 3.1875 C-25.54794555 0.63613037 -21.94612869 -0.02100346 -17.5 -1 C-16.69691406 -1.19013672 -15.89382812 -1.38027344 -15.06640625 -1.57617188 C-9.07703948 -2.9131722 -5.53527756 -2.97264906 0 0 Z " fill="#DBEADE" transform="translate(132.375,259.8125)"/>
<path d="M0 0 C4.65526118 0.73591163 8.1088305 2.50645712 12.20703125 4.74609375 C19.75354464 8.13410885 26.85001713 8.31051967 35 8.25 C36.0415625 8.25773437 37.083125 8.26546875 38.15625 8.2734375 C44.1583295 8.25828073 49.25282691 7.71872438 55 6 C56.25941406 5.65839844 57.51882812 5.31679687 58.81640625 4.96484375 C61.31688893 4.27910137 63.81688897 3.59159669 66.31640625 2.90234375 C69.89900798 2.0247393 73.32161225 1.29554413 77 1 C77.99 1.99 77.99 1.99 79 3 C78.12601562 3.15855469 77.25203125 3.31710938 76.3515625 3.48046875 C68.16094831 5.0344532 60.17396544 6.95417883 52.16845703 9.28588867 C36.53807385 13.80566569 21.6833238 13.02089161 7.25390625 5.18359375 C4.88962314 3.9420378 2.49249732 2.95391873 0 2 C0 1.34 0 0.68 0 0 Z " fill="#CBE3CF" transform="translate(120,250)"/>
<path d="M0 0 C0.66 0.33 1.32 0.66 2 1 C0.4279233 2.98909704 -1.15646056 4.96571876 -2.75 6.9375 C-3.41515625 7.78344727 -3.41515625 7.78344727 -4.09375 8.64648438 C-7.47893123 12.8032878 -7.47893123 12.8032878 -10.328125 13.87890625 C-11.15570313 13.93884766 -11.15570313 13.93884766 -12 14 C-10.6975667 11.09457188 -9.29113732 9.1907039 -7 7 C-7.53367187 7.2165625 -8.06734375 7.433125 -8.6171875 7.65625 C-15.81701704 10.34684374 -22.2365375 10.87814125 -29.75 9.125 C-35.1363108 8.28712943 -39.68894758 11.41269073 -44.43359375 13.62890625 C-49.39944701 15.53801304 -53.76684396 15.57671516 -59 15 C-59 14.67 -59 14.34 -59 14 C-58.09378906 13.84144531 -57.18757813 13.68289062 -56.25390625 13.51953125 C-55.03574219 13.28621094 -53.81757813 13.05289063 -52.5625 12.8125 C-51.36753906 12.59207031 -50.17257812 12.37164062 -48.94140625 12.14453125 C-45.77242902 11.40438191 -43.47900728 10.12827967 -40.73828125 8.390625 C-35.37115108 5.25822572 -30.68354971 5.58290679 -24.625 5.9375 C-16.49320204 6.18977915 -9.22417371 6.31246971 -2 2 C-1.34 1.34 -0.68 0.68 0 0 Z " fill="#3A9F4D" transform="translate(389,233)"/>
<path d="M0 0 C2.76501836 1.0572129 5.3711414 2.19330281 8 3.5625 C12.35921268 5.65128941 16.08520774 6.14085502 20.87890625 5.88671875 C38.81036266 5.21452582 38.81036266 5.21452582 47.4375 10.53125 C51.39246988 12.79812298 55.52314837 13.42553674 60 14 C60 14.33 60 14.66 60 15 C51.48347749 15.55846049 44.16318926 13.77545951 37 9 C35.14242445 9.20264461 33.28522292 9.41679544 31.4375 9.6953125 C23.09881111 10.73764861 15.76163054 10.29281296 8 7 C7.34 7.66 6.68 8.32 6 9 C4.99712471 7.68969568 3.99777175 6.37669473 3 5.0625 C2.443125 4.33160156 1.88625 3.60070312 1.3125 2.84765625 C0 1 0 1 0 0 Z " fill="#3FA151" transform="translate(107,233)"/>
<path d="M0 0 C4.04650076 1.31511275 8.01651185 2.75498321 11.97265625 4.31640625 C20.61810385 7.23153791 29.96354272 6.65963244 38.6484375 4.2421875 C41 4 41 4 43.70019531 4.95898438 C47.31966532 6.10084736 50.35951234 6.31691057 54.1484375 6.4140625 C54.80582916 6.43342865 55.46322083 6.4527948 56.14053345 6.4727478 C58.21856135 6.53202461 60.29664624 6.57871794 62.375 6.625 C63.7929915 6.66322778 65.21096097 6.70228223 66.62890625 6.7421875 C70.08573461 6.83768171 73.54272983 6.92190189 77 7 C77 7.33 77 7.66 77 8 C68.09 8 59.18 8 50 8 C50 8.66 50 9.32 50 10 C48.7625 9.649375 47.525 9.29875 46.25 8.9375 C41.32059079 7.83089793 36.97132884 8.17661728 31.98046875 8.6953125 C19.68395961 9.95236062 10.53109321 7.43566807 0 1 C0 0.67 0 0.34 0 0 Z " fill="#5DAF6D" transform="translate(134,219)"/>
<path d="M0 0 C0.66 0.66 1.32 1.32 2 2 C3.98821313 2.39764263 5.98944339 2.73775349 8 3 C8 3.99 8 4.98 8 6 C4.37 6 0.74 6 -3 6 C-3 7.65 -3 9.3 -3 11 C-1.35 11 0.3 11 2 11 C1.67 11.99 1.34 12.98 1 14 C-5.34507042 14.35915493 -5.34507042 14.35915493 -7.9375 12.9375 C-9.63902633 9.8347167 -9.42519574 7.46230815 -9 4 C-6.44752825 0.31309637 -4.449425 -0.70254079 0 0 Z " fill="#E9F2E8" transform="translate(245,298)"/>
<path d="M0 0 C0.66 0.33 1.32 0.66 2 1 C0.12762629 1.96345444 -1.7480299 2.92053102 -3.625 3.875 C-4.66914063 4.40867188 -5.71328125 4.94234375 -6.7890625 5.4921875 C-12.53163613 8.18882183 -17.00366882 9.25975221 -23.375 9.1875 C-24.03838379 9.18250488 -24.70176758 9.17750977 -25.38525391 9.17236328 C-28.76684607 9.12506248 -32.04050052 8.93299084 -35.375 8.375 C-39.92157229 7.90466494 -43.6375392 8.77810704 -48 10 C-48 9.34 -48 8.68 -48 8 C-49.65 8 -51.3 8 -53 8 C-53 7.67 -53 7.34 -53 7 C-51.78763672 6.80083984 -51.78763672 6.80083984 -50.55078125 6.59765625 C-49.48214844 6.42105469 -48.41351563 6.24445313 -47.3125 6.0625 C-46.25675781 5.88847656 -45.20101563 5.71445313 -44.11328125 5.53515625 C-42.16612193 5.20045007 -40.22557334 4.82068268 -38.30078125 4.375 C-35.54098387 3.92518583 -33.68813043 4.6810917 -31.06640625 5.5078125 C-21.75352347 7.72600386 -10.76328655 5.67885202 -2.375 1.25 C-1.59125 0.8375 -0.8075 0.425 0 0 Z " fill="#52AA63" transform="translate(362,219)"/>
<path d="M0 0 C0.495 0.99 0.495 0.99 1 2 C0.24976563 2.08636719 -0.50046875 2.17273438 -1.2734375 2.26171875 C-14.09528667 4.02189704 -21.83406847 9.01906893 -31 18 C-31.5671875 18.53109375 -32.134375 19.0621875 -32.71875 19.609375 C-34.45781086 21.49689228 -35.06512395 23.63164734 -36 26 C-36.66 26.33 -37.32 26.66 -38 27 C-38 26.34 -38 25.68 -38 25 C-38.66 24.67 -39.32 24.34 -40 24 C-13.65911852 -6.30420855 -13.65911852 -6.30420855 0 0 Z " fill="#D7E8DA" transform="translate(288,244)"/>
<path d="M0 0 C1.98 0 3.96 0 6 0 C8 2 8 2 8.3125 5.9375 C8.23719217 8.53091352 8.15247863 9.74319388 6.8125 12 C5 13 5 13 0 13 C0 8.71 0 4.42 0 0 Z " fill="#F4F6F4" transform="translate(176,299)"/>
<path d="M0 0 C0.66 0.66 1.32 1.32 2 2 C-11.84330258 11.00865678 -23.63623675 13.20426334 -40 13 C-40.33 12.34 -40.66 11.68 -41 11 C-39.94683594 10.98582031 -38.89367187 10.97164063 -37.80859375 10.95703125 C-23.89238047 10.57371819 -11.915305 7.58833787 0 0 Z " fill="#D4E7D7" transform="translate(376,249)"/>
<path d="M0 0 C9.72657452 -0.11237377 19.30429046 0.07027443 29 1 C29 1.66 29 2.32 29 3 C19.1 3 9.2 3 -1 3 C-0.67 2.01 -0.34 1.02 0 0 Z " fill="#3A9E4D" transform="translate(285,226)"/>
<path d="M0 0 C6.41575094 -0.87487513 10.31591568 1.5401302 15.91015625 4.53125 C20.16301315 6.55283558 24.35444961 7.40388955 29 8 C29 8.33 29 8.66 29 9 C20.48347749 9.55846049 13.16318926 7.77545951 6 3 C2.87478167 2.83300768 2.87478167 2.83300768 0 3 C0 2.01 0 1.02 0 0 Z " fill="#44A356" transform="translate(138,239)"/>
<path d="M0 0 C0.33 0.99 0.66 1.98 1 3 C0.01 4.485 0.01 4.485 -1 6 C-1.60103341 8.21389829 -2.13675809 10.44602579 -2.625 12.6875 C-2.88539063 13.86699219 -3.14578125 15.04648437 -3.4140625 16.26171875 C-3.60742188 17.16535156 -3.80078125 18.06898438 -4 19 C-4.99 18.67 -5.98 18.34 -7 18 C-7 15.36 -7 12.72 -7 10 C-6.01 10 -5.02 10 -4 10 C-3.87882813 9.36191406 -3.75765625 8.72382813 -3.6328125 8.06640625 C-3.46523437 7.24011719 -3.29765625 6.41382813 -3.125 5.5625 C-2.96257812 4.73878906 -2.80015625 3.91507813 -2.6328125 3.06640625 C-2.42398438 2.38449219 -2.21515625 1.70257813 -2 1 C-1.34 0.67 -0.68 0.34 0 0 Z " fill="#D0E5D4" transform="translate(254,245)"/>
<path d="M0 0 C-0.74765625 0.53109375 -1.4953125 1.0621875 -2.265625 1.609375 C-3.25046875 2.31578125 -4.2353125 3.0221875 -5.25 3.75 C-6.22453125 4.44609375 -7.1990625 5.1421875 -8.203125 5.859375 C-10.69233296 7.76452299 -12.84971939 9.72684621 -15 12 C-15 8 -15 8 -13.390625 6.1484375 C-12.68421875 5.56320312 -11.9778125 4.97796875 -11.25 4.375 C-10.55390625 3.78460938 -9.8578125 3.19421875 -9.140625 2.5859375 C-3.89694224 -1.29898075 -3.89694224 -1.29898075 0 0 Z M-22 10 C-21.01 10.33 -20.02 10.66 -19 11 C-18.67 11.99 -18.34 12.98 -18 14 C-19.32 13.34 -20.64 12.68 -22 12 C-22 11.34 -22 10.68 -22 10 Z " fill="#ECF2ED" transform="translate(269,258)"/>
<path d="M0 0 C4.62928366 1.22539862 6.67992463 3.66375038 9.57421875 7.24609375 C11.25051101 9.30816286 13.08560666 11.15923718 15 13 C14.34 14.32 13.68 15.64 13 17 C11.04599112 15.31244687 10.07694838 14.25183107 9.3125 11.75 C7.53892101 8.03392973 4.85645161 6.10010618 1.6796875 3.55078125 C1.12539062 3.03902344 0.57109375 2.52726563 0 2 C0 1.34 0 0.68 0 0 Z " fill="#DCEBDF" transform="translate(233,253)"/>
<path d="M0 0 C-1.38167466 3.15712659 -2.96996213 5.11651187 -5.5 7.4375 C-8.30211239 10.13518584 -9.78733188 12.25175308 -11 16 C-11.66 16.33 -12.32 16.66 -13 17 C-13 16.34 -13 15.68 -13 15 C-13.66 14.67 -14.32 14.34 -15 14 C-13.58474822 12.41540185 -12.1677358 10.83237609 -10.75 9.25 C-9.96109375 8.36828125 -9.1721875 7.4865625 -8.359375 6.578125 C-2.33939394 0 -2.33939394 0 0 0 Z " fill="#C7E1CC" transform="translate(263,254)"/>
<path d="M0 0 C3.76844648 1.83566079 7.39751722 3.85871117 11 6 C10.34 6.66 9.68 7.32 9 8 C8.50113281 7.67386719 8.00226563 7.34773437 7.48828125 7.01171875 C0.96199039 3.03970331 -5.53553136 1.41905663 -13 0 C-8.27979569 -2.78777167 -4.99340691 -1.75972473 0 0 Z " fill="#E3EEE5" transform="translate(223,246)"/>
<path d="M0 0 C2.22909871 -0.02714735 4.45829367 -0.04646254 6.6875 -0.0625 C7.92886719 -0.07410156 9.17023438 -0.08570313 10.44921875 -0.09765625 C13.46235454 -0.01478673 16.08275339 0.29160551 19 1 C19 1.66 19 2.32 19 3 C12.4 2.67 5.8 2.34 -1 2 C-0.67 1.34 -0.34 0.68 0 0 Z " fill="#EDF3EE" transform="translate(285,258)"/>
<path d="M0 0 C0.66 0.33 1.32 0.66 2 1 C0.4279233 2.98909704 -1.15646056 4.96571876 -2.75 6.9375 C-3.1934375 7.50146484 -3.636875 8.06542969 -4.09375 8.64648438 C-7.47893123 12.8032878 -7.47893123 12.8032878 -10.328125 13.87890625 C-11.15570313 13.93884766 -11.15570313 13.93884766 -12 14 C-10.64564617 10.87353147 -9.22498698 9.10708647 -6.5625 7 C-3.96182322 4.86527781 -1.85750071 2.84088344 0 0 Z " fill="#56AC66" transform="translate(389,233)"/>
<path d="M0 0 C0.66 0.66 1.32 1.32 2 2 C-3.94 2.33 -9.88 2.66 -16 3 C-13.06473313 1.04315542 -11.38453435 0.48235576 -8 -0.1875 C-7.13375 -0.36667969 -6.2675 -0.54585938 -5.375 -0.73046875 C-3 -1 -3 -1 0 0 Z " fill="#C5E0CA" transform="translate(360,264)"/>
<path d="M0 0 C0.66 0.33 1.32 0.66 2 1 C0.53072232 4.61729777 -1.39801615 6.3660478 -4.5 8.6875 C-5.2940625 9.28949219 -6.088125 9.89148438 -6.90625 10.51171875 C-9 12 -9 12 -11 13 C-9.46356148 9.31930113 -7.21849055 7.01224796 -4.375 4.25 C-3.55773437 3.45078125 -2.74046875 2.6515625 -1.8984375 1.828125 C-0.95871094 0.92320312 -0.95871094 0.92320312 0 0 Z " fill="#379D4A" transform="translate(264,254)"/>
<path d="M0 0 C0 0.66 0 1.32 0 2 C-6.07877934 5.24201565 -11.18401613 5.33278764 -18 5 C-18 4.67 -18 4.34 -18 4 C-17.01257813 3.79503906 -16.02515625 3.59007812 -15.0078125 3.37890625 C-13.72648437 3.10949219 -12.44515625 2.84007812 -11.125 2.5625 C-9.84882813 2.29566406 -8.57265625 2.02882812 -7.2578125 1.75390625 C-4.66939438 1.15490781 -2.59881008 0 0 0 Z " fill="#64B273" transform="translate(348,243)"/>
<path d="M0 0 C5.94 1.485 5.94 1.485 12 3 C11.67 3.66 11.34 4.32 11 5 C7.37 4.34 3.74 3.68 0 3 C0 2.01 0 1.02 0 0 Z " fill="#CAE2CE" transform="translate(304,259)"/>
<path d="M0 0 C3.82448388 1.47480097 5.25042364 3.45294912 7.3125 6.9375 C7.84488281 7.81277344 8.37726563 8.68804687 8.92578125 9.58984375 C10 12 10 12 9 15 C8.60167969 14.31292969 8.20335937 13.62585938 7.79296875 12.91796875 C7.26316406 12.01691406 6.73335937 11.11585938 6.1875 10.1875 C5.66542969 9.29417969 5.14335937 8.40085938 4.60546875 7.48046875 C3.13059348 5.01198722 3.13059348 5.01198722 1.30078125 3.30078125 C0.87152344 2.87152344 0.44226563 2.44226563 0 2 C0 1.34 0 0.68 0 0 Z " fill="#4EA85F" transform="translate(236,240)"/>
<path d="M0 0 C0.99 0.66 1.98 1.32 3 2 C-0.96 2.66 -4.92 3.32 -9 4 C-9.33 3.01 -9.66 2.02 -10 1 C-3.57884427 -1.48090108 -3.57884427 -1.48090108 0 0 Z " fill="#53AB64" transform="translate(285,228)"/>
<path d="M0 0 C0 3.71884228 -0.8740066 4.36147729 -3.3125 7.0625 C-4.23482422 8.10083984 -4.23482422 8.10083984 -5.17578125 9.16015625 C-7 11 -7 11 -10 13 C-8.63013109 8.51679267 -6.68629532 6.7871989 -3 4 C-1.23676495 1.87396815 -1.23676495 1.87396815 0 0 Z " fill="#43A355" transform="translate(364,221)"/>
<path d="M0 0 C0.66 0.33 1.32 0.66 2 1 C1.21625 1.9075 0.4325 2.815 -0.375 3.75 C-2.30052496 6.05190236 -3.82205741 8.21577207 -5 11 C-5.99 11 -6.98 11 -8 11 C-6.63629701 8.00779732 -5.05091917 5.70973471 -2.875 3.25 C-2.33617187 2.63640625 -1.79734375 2.0228125 -1.2421875 1.390625 C-0.62730469 0.70226562 -0.62730469 0.70226562 0 0 Z " fill="#44A356" transform="translate(261,270)"/>
<path d="M0 0 C0.99 0.33 1.98 0.66 3 1 C1.57140593 2.03325986 0.13177617 3.05127634 -1.3125 4.0625 C-2.51326172 4.91521484 -2.51326172 4.91521484 -3.73828125 5.78515625 C-4.48464844 6.18605469 -5.23101562 6.58695312 -6 7 C-6.99 6.67 -7.98 6.34 -9 6 C-7.57140593 4.96674014 -6.13177617 3.94872366 -4.6875 2.9375 C-3.88699219 2.36902344 -3.08648437 1.80054688 -2.26171875 1.21484375 C-1.51535156 0.81394531 -0.76898438 0.41304688 0 0 Z " fill="#E1EDE3" transform="translate(266,257)"/>
<path d="M0 0 C0.66 0.33 1.32 0.66 2 1 C0.57277341 2.1998278 -0.86715776 3.3845576 -2.3125 4.5625 C-3.51326172 5.55443359 -3.51326172 5.55443359 -4.73828125 6.56640625 C-5.85783203 7.27603516 -5.85783203 7.27603516 -7 8 C-7.99 7.67 -8.98 7.34 -10 7 C-8.72070154 4.44140308 -7.55728932 4.13851266 -5 2.9375 C-2.30092276 1.75531476 -2.30092276 1.75531476 0 0 Z " fill="#45A457" transform="translate(374,252)"/>
<path d="M0 0 C-3.96 1.65 -7.92 3.3 -12 5 C-12.33 4.01 -12.66 3.02 -13 2 C-11.39935157 1.46845258 -9.79431126 0.95011647 -8.1875 0.4375 C-7.29417969 0.14746094 -6.40085937 -0.14257812 -5.48046875 -0.44140625 C-3 -1 -3 -1 0 0 Z " fill="#67B476" transform="translate(308,173)"/>
<path d="M0 0 C0.66 0.33 1.32 0.66 2 1 C-0.35684596 4.34920216 -3.06799526 7.14723863 -6 10 C-6 6.41087588 -5.33563446 5.89142971 -3 3.3125 C-2.443125 2.68988281 -1.88625 2.06726563 -1.3125 1.42578125 C-0.879375 0.95527344 -0.44625 0.48476563 0 0 Z " fill="#44A356" transform="translate(260,263)"/>
<path d="M0 0 C2.4375 0.75 2.4375 0.75 5 2 C5.6875 4 5.6875 4 6 6 C6.66 6.66 7.32 7.32 8 8 C7.01 8 6.02 8 5 8 C3.61328125 6.50390625 3.61328125 6.50390625 2.3125 4.5625 C1.87550781 3.92441406 1.43851562 3.28632813 0.98828125 2.62890625 C0 1 0 1 0 0 Z " fill="#6AB578" transform="translate(107,233)"/>
<path d="M0 0 C3.33333333 1.66666667 6.66666667 3.33333333 10 5 C9.67 5.99 9.34 6.98 9 8 C7.68388323 7.04663979 6.37221039 6.08714226 5.0625 5.125 C4.33160156 4.59132813 3.60070312 4.05765625 2.84765625 3.5078125 C1 2 1 2 0 0 Z " fill="#4BA75D" transform="translate(122,252)"/>
<path d="M0 0 C0.33 0.99 0.66 1.98 1 3 C-2.63 2.34 -6.26 1.68 -10 1 C-5.64467851 -1.17766075 -4.53374042 -1.03039555 0 0 Z " fill="#CFE4D3" transform="translate(220,245)"/>
<path d="M0 0 C4.95 0.99 4.95 0.99 10 2 C10 2.99 10 3.98 10 5 C8.51800098 4.55090939 7.03944764 4.09043436 5.5625 3.625 C4.73878906 3.36976563 3.91507812 3.11453125 3.06640625 2.8515625 C1 2 1 2 0 0 Z " fill="#46A458" transform="translate(113,237)"/>
<path d="M0 0 C0.66 0.33 1.32 0.66 2 1 C1.0479279 2.00596297 0.08812654 3.00461563 -0.875 4 C-1.40867188 4.556875 -1.94234375 5.11375 -2.4921875 5.6875 C-4 7 -4 7 -6 7 C-4.60667426 3.63279613 -3.0210714 2.0140476 0 0 Z " fill="#BFDDC5" transform="translate(256,270)"/>
<path d="M0 0 C0.99 0.99 1.98 1.98 3 3 C2.34 4.32 1.68 5.64 1 7 C0.01 6.01 -0.98 5.02 -2 4 C-1.34 2.68 -0.68 1.36 0 0 Z " fill="#9DCDA7" transform="translate(245,263)"/>
<path d="M0 0 C0.33 1.32 0.66 2.64 1 4 C-2.3 4 -5.6 4 -9 4 C-9 3.67 -9 3.34 -9 3 C-8.43410156 2.86722656 -7.86820313 2.73445313 -7.28515625 2.59765625 C-6.18494141 2.33275391 -6.18494141 2.33275391 -5.0625 2.0625 C-4.33160156 1.88847656 -3.60070312 1.71445312 -2.84765625 1.53515625 C-1.00030102 1.16112431 -1.00030102 1.16112431 0 0 Z " fill="#29973E" transform="translate(255,279)"/>
<path d="M0 0 C1 3 1 3 -0.4375 6.1875 C-1.2109375 7.5796875 -1.2109375 7.5796875 -2 9 C-2.66 8.34 -3.32 7.68 -4 7 C-3.39816251 4.97954558 -2.72693904 2.97888961 -2 1 C-1.34 0.67 -0.68 0.34 0 0 Z " fill="#E1EFE1" transform="translate(254,245)"/>
</svg>
